<svg width="980" height="820" viewBox="0 0 980 820" fill="none" xmlns="http://www.w3.org/2000/svg">
<rect width="980" height="820" rx="16" fill="#05110A"/>
<path d="M901.688 800V798.326H905.216V788.912H905.072L902.156 792.026L900.914 790.91L904.118 787.436H907.232V798.326H910.274V800H901.688Z" fill="#E4E6FE"/>
<path d="M912.016 32V29.552H906.04V27.824L911.296 19.436H913.942V27.968H915.706V29.552H913.942V32H912.016ZM907.75 27.968H912.016V21.29H911.908L907.75 27.968Z" fill="#E4E6FE"/>
<path d="M904.517 32H895.841V30.074L899.945 26.492C900.593 25.916 901.091 25.37 901.439 24.854C901.799 24.338 901.979 23.792 901.979 23.216V23.018C901.979 22.358 901.799 21.854 901.439 21.506C901.079 21.146 900.557 20.966 899.873 20.966C899.177 20.966 898.637 21.152 898.253 21.524C897.881 21.896 897.611 22.37 897.443 22.946L895.679 22.28C895.799 21.884 895.973 21.506 896.201 21.146C896.429 20.774 896.717 20.444 897.065 20.156C897.425 19.868 897.845 19.64 898.325 19.472C898.817 19.304 899.381 19.22 900.017 19.22C900.665 19.22 901.241 19.316 901.745 19.508C902.261 19.688 902.693 19.94 903.041 20.264C903.389 20.588 903.653 20.978 903.833 21.434C904.013 21.878 904.103 22.37 904.103 22.91C904.103 23.414 904.025 23.882 903.869 24.314C903.725 24.734 903.515 25.142 903.239 25.538C902.975 25.922 902.657 26.294 902.285 26.654C901.913 27.014 901.505 27.374 901.061 27.734L898.019 30.29H904.517V32Z" fill="#E4E6FE"/>
<path d="M841.914 800H833.238V798.074L837.342 794.492C837.99 793.916 838.488 793.37 838.836 792.854C839.196 792.338 839.376 791.792 839.376 791.216V791.018C839.376 790.358 839.196 789.854 838.836 789.506C838.476 789.146 837.954 788.966 837.27 788.966C836.574 788.966 836.034 789.152 835.65 789.524C835.278 789.896 835.008 790.37 834.84 790.946L833.076 790.28C833.196 789.884 833.37 789.506 833.598 789.146C833.826 788.774 834.114 788.444 834.462 788.156C834.822 787.868 835.242 787.64 835.722 787.472C836.214 787.304 836.778 787.22 837.414 787.22C838.062 787.22 838.638 787.316 839.142 787.508C839.658 787.688 840.09 787.94 840.438 788.264C840.786 788.588 841.05 788.978 841.23 789.434C841.41 789.878 841.5 790.37 841.5 790.91C841.5 791.414 841.422 791.882 841.266 792.314C841.122 792.734 840.912 793.142 840.636 793.538C840.372 793.922 840.054 794.294 839.682 794.654C839.31 795.014 838.902 795.374 838.458 795.734L835.416 798.29H841.914V800Z" fill="#E4E6FE"/>
<path d="M842.378 24.62C843.182 24.62 843.776 24.452 844.16 24.116C844.556 23.768 844.754 23.336 844.754 22.82V22.694C844.754 22.118 844.562 21.68 844.178 21.38C843.806 21.068 843.302 20.912 842.666 20.912C842.054 20.912 841.532 21.05 841.1 21.326C840.68 21.602 840.326 21.98 840.038 22.46L838.67 21.29C838.862 21.014 839.084 20.75 839.336 20.498C839.588 20.246 839.876 20.03 840.2 19.85C840.524 19.658 840.896 19.508 841.316 19.4C841.736 19.28 842.21 19.22 842.738 19.22C843.326 19.22 843.872 19.292 844.376 19.436C844.88 19.58 845.318 19.796 845.69 20.084C846.062 20.36 846.35 20.702 846.554 21.11C846.758 21.506 846.86 21.956 846.86 22.46C846.86 22.856 846.794 23.216 846.662 23.54C846.542 23.864 846.368 24.152 846.14 24.404C845.924 24.644 845.666 24.842 845.366 24.998C845.066 25.154 844.748 25.268 844.412 25.34V25.43C844.772 25.502 845.114 25.622 845.438 25.79C845.762 25.946 846.05 26.156 846.302 26.42C846.554 26.672 846.752 26.978 846.896 27.338C847.04 27.686 847.112 28.088 847.112 28.544C847.112 29.096 847.004 29.6 846.788 30.056C846.572 30.5 846.26 30.884 845.852 31.208C845.456 31.532 844.976 31.784 844.412 31.964C843.848 32.132 843.218 32.216 842.522 32.216C841.934 32.216 841.412 32.15 840.956 32.018C840.512 31.898 840.116 31.736 839.768 31.532C839.42 31.316 839.114 31.076 838.85 30.812C838.598 30.536 838.376 30.254 838.184 29.966L839.678 28.814C839.99 29.318 840.356 29.732 840.776 30.056C841.208 30.368 841.796 30.524 842.54 30.524C843.332 30.524 843.938 30.344 844.358 29.984C844.778 29.612 844.988 29.102 844.988 28.454V28.31C844.988 27.662 844.766 27.17 844.322 26.834C843.89 26.486 843.26 26.312 842.432 26.312H841.082V24.62H842.378Z" fill="#E4E6FE"/>
<path d="M836.517 32H827.841V30.074L831.945 26.492C832.593 25.916 833.091 25.37 833.439 24.854C833.799 24.338 833.979 23.792 833.979 23.216V23.018C833.979 22.358 833.799 21.854 833.439 21.506C833.079 21.146 832.557 20.966 831.873 20.966C831.177 20.966 830.637 21.152 830.253 21.524C829.881 21.896 829.611 22.37 829.443 22.946L827.679 22.28C827.799 21.884 827.973 21.506 828.201 21.146C828.429 20.774 828.717 20.444 829.065 20.156C829.425 19.868 829.845 19.64 830.325 19.472C830.817 19.304 831.381 19.22 832.017 19.22C832.665 19.22 833.241 19.316 833.745 19.508C834.261 19.688 834.693 19.94 835.041 20.264C835.389 20.588 835.653 20.978 835.833 21.434C836.013 21.878 836.103 22.37 836.103 22.91C836.103 23.414 836.025 23.882 835.869 24.314C835.725 24.734 835.515 25.142 835.239 25.538C834.975 25.922 834.657 26.294 834.285 26.654C833.913 27.014 833.505 27.374 833.061 27.734L830.019 30.29H836.517V32Z" fill="#E4E6FE"/>
<path d="M768.982 792.62C769.786 792.62 770.38 792.452 770.764 792.116C771.16 791.768 771.358 791.336 771.358 790.82V790.694C771.358 790.118 771.166 789.68 770.782 789.38C770.41 789.068 769.906 788.912 769.27 788.912C768.658 788.912 768.136 789.05 767.704 789.326C767.284 789.602 766.93 789.98 766.642 790.46L765.274 789.29C765.466 789.014 765.688 788.75 765.94 788.498C766.192 788.246 766.48 788.03 766.804 787.85C767.128 787.658 767.5 787.508 767.92 787.4C768.34 787.28 768.814 787.22 769.342 787.22C769.93 787.22 770.476 787.292 770.98 787.436C771.484 787.58 771.922 787.796 772.294 788.084C772.666 788.36 772.954 788.702 773.158 789.11C773.362 789.506 773.464 789.956 773.464 790.46C773.464 790.856 773.398 791.216 773.266 791.54C773.146 791.864 772.972 792.152 772.744 792.404C772.528 792.644 772.27 792.842 771.97 792.998C771.67 793.154 771.352 793.268 771.016 793.34V793.43C771.376 793.502 771.718 793.622 772.042 793.79C772.366 793.946 772.654 794.156 772.906 794.42C773.158 794.672 773.356 794.978 773.5 795.338C773.644 795.686 773.716 796.088 773.716 796.544C773.716 797.096 773.608 797.6 773.392 798.056C773.176 798.5 772.864 798.884 772.456 799.208C772.06 799.532 771.58 799.784 771.016 799.964C770.452 800.132 769.822 800.216 769.126 800.216C768.538 800.216 768.016 800.15 767.56 800.018C767.116 799.898 766.72 799.736 766.372 799.532C766.024 799.316 765.718 799.076 765.454 798.812C765.202 798.536 764.98 798.254 764.788 797.966L766.282 796.814C766.594 797.318 766.96 797.732 767.38 798.056C767.812 798.368 768.4 798.524 769.144 798.524C769.936 798.524 770.542 798.344 770.962 797.984C771.382 797.612 771.592 797.102 771.592 796.454V796.31C771.592 795.662 771.37 795.17 770.926 794.834C770.494 794.486 769.864 794.312 769.036 794.312H767.686V792.62H768.982Z" fill="#E4E6FE"/>
<path d="M779.31 32H770.634V30.074L774.738 26.492C775.386 25.916 775.884 25.37 776.232 24.854C776.592 24.338 776.772 23.792 776.772 23.216V23.018C776.772 22.358 776.592 21.854 776.232 21.506C775.872 21.146 775.35 20.966 774.666 20.966C773.97 20.966 773.43 21.152 773.046 21.524C772.674 21.896 772.404 22.37 772.236 22.946L770.472 22.28C770.592 21.884 770.766 21.506 770.994 21.146C771.222 20.774 771.51 20.444 771.858 20.156C772.218 19.868 772.638 19.64 773.118 19.472C773.61 19.304 774.174 19.22 774.81 19.22C775.458 19.22 776.034 19.316 776.538 19.508C777.054 19.688 777.486 19.94 777.834 20.264C778.182 20.588 778.446 20.978 778.626 21.434C778.806 21.878 778.896 22.37 778.896 22.91C778.896 23.414 778.818 23.882 778.662 24.314C778.518 24.734 778.308 25.142 778.032 25.538C777.768 25.922 777.45 26.294 777.078 26.654C776.706 27.014 776.298 27.374 775.854 27.734L772.812 30.29H779.31V32Z" fill="#E4E6FE"/>
<path d="M768.517 32H759.841V30.074L763.945 26.492C764.593 25.916 765.091 25.37 765.439 24.854C765.799 24.338 765.979 23.792 765.979 23.216V23.018C765.979 22.358 765.799 21.854 765.439 21.506C765.079 21.146 764.557 20.966 763.873 20.966C763.177 20.966 762.637 21.152 762.253 21.524C761.881 21.896 761.611 22.37 761.443 22.946L759.679 22.28C759.799 21.884 759.973 21.506 760.201 21.146C760.429 20.774 760.717 20.444 761.065 20.156C761.425 19.868 761.845 19.64 762.325 19.472C762.817 19.304 763.381 19.22 764.017 19.22C764.665 19.22 765.241 19.316 765.745 19.508C766.261 19.688 766.693 19.94 767.041 20.264C767.389 20.588 767.653 20.978 767.833 21.434C768.013 21.878 768.103 22.37 768.103 22.91C768.103 23.414 768.025 23.882 767.869 24.314C767.725 24.734 767.515 25.142 767.239 25.538C766.975 25.922 766.657 26.294 766.285 26.654C765.913 27.014 765.505 27.374 765.061 27.734L762.019 30.29H768.517V32Z" fill="#E4E6FE"/>
<path d="M702.62 800V797.552H696.644V795.824L701.9 787.436H704.546V795.968H706.31V797.552H704.546V800H702.62ZM698.354 795.968H702.62V789.29H702.512L698.354 795.968Z" fill="#E4E6FE"/>
<path d="M703.084 32V30.326H706.612V20.912H706.468L703.552 24.026L702.31 22.91L705.514 19.436H708.628V30.326H711.67V32H703.084Z" fill="#E4E6FE"/>
<path d="M700.517 32H691.841V30.074L695.945 26.492C696.593 25.916 697.091 25.37 697.439 24.854C697.799 24.338 697.979 23.792 697.979 23.216V23.018C697.979 22.358 697.799 21.854 697.439 21.506C697.079 21.146 696.557 20.966 695.873 20.966C695.177 20.966 694.637 21.152 694.253 21.524C693.881 21.896 693.611 22.37 693.443 22.946L691.679 22.28C691.799 21.884 691.973 21.506 692.201 21.146C692.429 20.774 692.717 20.444 693.065 20.156C693.425 19.868 693.845 19.64 694.325 19.472C694.817 19.304 695.381 19.22 696.017 19.22C696.665 19.22 697.241 19.316 697.745 19.508C698.261 19.688 698.693 19.94 699.041 20.264C699.389 20.588 699.653 20.978 699.833 21.434C700.013 21.878 700.103 22.37 700.103 22.91C700.103 23.414 700.025 23.882 699.869 24.314C699.725 24.734 699.515 25.142 699.239 25.538C698.975 25.922 698.657 26.294 698.285 26.654C697.913 27.014 697.505 27.374 697.061 27.734L694.019 30.29H700.517V32Z" fill="#E4E6FE"/>
<path d="M637.302 789.182H631.596L631.272 793.646H631.416C631.704 793.154 632.052 792.764 632.46 792.476C632.868 792.176 633.426 792.026 634.134 792.026C634.674 792.026 635.172 792.116 635.628 792.296C636.096 792.476 636.498 792.734 636.834 793.07C637.182 793.406 637.452 793.82 637.644 794.312C637.848 794.792 637.95 795.338 637.95 795.95C637.95 796.574 637.848 797.15 637.644 797.678C637.44 798.194 637.146 798.644 636.762 799.028C636.378 799.4 635.904 799.694 635.34 799.91C634.776 800.114 634.134 800.216 633.414 800.216C632.85 800.216 632.346 800.15 631.902 800.018C631.47 799.898 631.08 799.736 630.732 799.532C630.396 799.316 630.102 799.076 629.85 798.812C629.598 798.536 629.376 798.254 629.184 797.966L630.66 796.814C630.816 797.054 630.978 797.282 631.146 797.498C631.326 797.702 631.524 797.882 631.74 798.038C631.956 798.194 632.202 798.314 632.478 798.398C632.766 798.482 633.09 798.524 633.45 798.524C634.23 798.524 634.824 798.314 635.232 797.894C635.64 797.462 635.844 796.88 635.844 796.148V796.004C635.844 795.272 635.634 794.702 635.214 794.294C634.806 793.886 634.218 793.682 633.45 793.682C632.886 793.682 632.442 793.784 632.118 793.988C631.794 794.192 631.512 794.42 631.272 794.672L629.598 794.438L630.066 787.436H637.302V789.182Z" fill="#E4E6FE"/>
<path d="M638.9 32.216C638.108 32.216 637.418 32.072 636.83 31.784C636.254 31.484 635.774 31.058 635.39 30.506C635.018 29.954 634.742 29.276 634.562 28.472C634.382 27.668 634.292 26.75 634.292 25.718C634.292 24.698 634.382 23.786 634.562 22.982C634.742 22.166 635.018 21.482 635.39 20.93C635.774 20.378 636.254 19.958 636.83 19.67C637.418 19.37 638.108 19.22 638.9 19.22C639.692 19.22 640.376 19.37 640.952 19.67C641.54 19.958 642.02 20.378 642.392 20.93C642.776 21.482 643.058 22.166 643.238 22.982C643.418 23.786 643.508 24.698 643.508 25.718C643.508 26.75 643.418 27.668 643.238 28.472C643.058 29.276 642.776 29.954 642.392 30.506C642.02 31.058 641.54 31.484 640.952 31.784C640.376 32.072 639.692 32.216 638.9 32.216ZM638.9 30.56C639.812 30.56 640.46 30.224 640.844 29.552C641.24 28.868 641.438 27.95 641.438 26.798V24.638C641.438 23.486 641.24 22.574 640.844 21.902C640.46 21.218 639.812 20.876 638.9 20.876C638.444 20.876 638.054 20.966 637.73 21.146C637.406 21.314 637.142 21.566 636.938 21.902C636.734 22.226 636.584 22.622 636.488 23.09C636.404 23.546 636.362 24.062 636.362 24.638V26.798C636.362 27.374 636.404 27.896 636.488 28.364C636.584 28.82 636.734 29.216 636.938 29.552C637.142 29.876 637.406 30.128 637.73 30.308C638.054 30.476 638.444 30.56 638.9 30.56ZM638.9 26.78C638.48 26.78 638.186 26.696 638.018 26.528C637.862 26.36 637.784 26.156 637.784 25.916V25.52C637.784 25.28 637.862 25.076 638.018 24.908C638.186 24.74 638.48 24.656 638.9 24.656C639.32 24.656 639.608 24.74 639.764 24.908C639.932 25.076 640.016 25.28 640.016 25.52V25.916C640.016 26.156 639.932 26.36 639.764 26.528C639.608 26.696 639.32 26.78 638.9 26.78Z" fill="#E4E6FE"/>
<path d="M632.517 32H623.841V30.074L627.945 26.492C628.593 25.916 629.091 25.37 629.439 24.854C629.799 24.338 629.979 23.792 629.979 23.216V23.018C629.979 22.358 629.799 21.854 629.439 21.506C629.079 21.146 628.557 20.966 627.873 20.966C627.177 20.966 626.637 21.152 626.253 21.524C625.881 21.896 625.611 22.37 625.443 22.946L623.679 22.28C623.799 21.884 623.973 21.506 624.201 21.146C624.429 20.774 624.717 20.444 625.065 20.156C625.425 19.868 625.845 19.64 626.325 19.472C626.817 19.304 627.381 19.22 628.017 19.22C628.665 19.22 629.241 19.316 629.745 19.508C630.261 19.688 630.693 19.94 631.041 20.264C631.389 20.588 631.653 20.978 631.833 21.434C632.013 21.878 632.103 22.37 632.103 22.91C632.103 23.414 632.025 23.882 631.869 24.314C631.725 24.734 631.515 25.142 631.239 25.538C630.975 25.922 630.657 26.294 630.285 26.654C629.913 27.014 629.505 27.374 629.061 27.734L626.019 30.29H632.517V32Z" fill="#E4E6FE"/>
<path d="M565.54 800.216C564.832 800.216 564.202 800.102 563.65 799.874C563.098 799.646 562.63 799.322 562.246 798.902C561.862 798.47 561.568 797.954 561.364 797.354C561.16 796.754 561.058 796.076 561.058 795.32C561.058 794.408 561.196 793.55 561.472 792.746C561.748 791.942 562.108 791.204 562.552 790.532C562.996 789.86 563.488 789.266 564.028 788.75C564.568 788.222 565.102 787.784 565.63 787.436H568.33C567.61 787.952 566.962 788.45 566.386 788.93C565.81 789.41 565.306 789.902 564.874 790.406C564.454 790.91 564.1 791.444 563.812 792.008C563.524 792.56 563.302 793.178 563.146 793.862L563.272 793.898C563.404 793.646 563.56 793.412 563.74 793.196C563.92 792.968 564.13 792.77 564.37 792.602C564.61 792.434 564.886 792.302 565.198 792.206C565.51 792.11 565.864 792.062 566.26 792.062C566.8 792.062 567.298 792.152 567.754 792.332C568.21 792.512 568.606 792.776 568.942 793.124C569.278 793.46 569.536 793.868 569.716 794.348C569.908 794.828 570.004 795.368 570.004 795.968C570.004 796.592 569.896 797.168 569.68 797.696C569.476 798.212 569.176 798.656 568.78 799.028C568.396 799.4 567.928 799.694 567.376 799.91C566.824 800.114 566.212 800.216 565.54 800.216ZM565.522 798.596C566.29 798.596 566.884 798.392 567.304 797.984C567.724 797.564 567.934 796.976 567.934 796.22V796.04C567.934 795.284 567.724 794.702 567.304 794.294C566.884 793.874 566.29 793.664 565.522 793.664C564.766 793.664 564.178 793.874 563.758 794.294C563.338 794.702 563.128 795.284 563.128 796.04V796.22C563.128 796.976 563.338 797.564 563.758 797.984C564.178 798.392 564.766 798.596 565.522 798.596Z" fill="#E4E6FE"/>
<path d="M575.346 24.116C575.346 25.028 575.208 25.886 574.932 26.69C574.656 27.494 574.296 28.232 573.852 28.904C573.408 29.576 572.916 30.176 572.376 30.704C571.836 31.232 571.302 31.664 570.774 32H568.074C568.794 31.484 569.442 30.986 570.018 30.506C570.594 30.026 571.092 29.534 571.512 29.03C571.944 28.526 572.304 27.998 572.592 27.446C572.88 26.882 573.102 26.258 573.258 25.574L573.132 25.538C573 25.79 572.844 26.03 572.664 26.258C572.484 26.474 572.274 26.666 572.034 26.834C571.794 27.002 571.518 27.134 571.206 27.23C570.894 27.326 570.54 27.374 570.144 27.374C569.604 27.374 569.106 27.284 568.65 27.104C568.194 26.924 567.798 26.666 567.462 26.33C567.126 25.982 566.862 25.568 566.67 25.088C566.49 24.608 566.4 24.068 566.4 23.468C566.4 22.844 566.502 22.274 566.706 21.758C566.922 21.23 567.222 20.78 567.606 20.408C568.002 20.036 568.476 19.748 569.028 19.544C569.58 19.328 570.192 19.22 570.864 19.22C571.56 19.22 572.184 19.334 572.736 19.562C573.3 19.79 573.774 20.12 574.158 20.552C574.542 20.972 574.836 21.482 575.04 22.082C575.244 22.682 575.346 23.36 575.346 24.116ZM570.882 25.772C571.638 25.772 572.226 25.568 572.646 25.16C573.066 24.74 573.276 24.152 573.276 23.396V23.216C573.276 22.46 573.066 21.878 572.646 21.47C572.226 21.05 571.638 20.84 570.882 20.84C570.114 20.84 569.52 21.05 569.1 21.47C568.68 21.878 568.47 22.46 568.47 23.216V23.396C568.47 24.152 568.68 24.74 569.1 25.16C569.52 25.568 570.114 25.772 570.882 25.772Z" fill="#E4E6FE"/>
<path d="M556.291 32V30.326H559.819V20.912H559.675L556.759 24.026L555.517 22.91L558.721 19.436H561.835V30.326H564.877V32H556.291Z" fill="#E4E6FE"/>
<path d="M412.146 800L416.808 789.11H411.912V791.432H410.166V787.436H418.824V789.2L414.288 800H412.146Z" fill="#E4E6FE"/>
<path d="M419.9 32.216C419.156 32.216 418.502 32.126 417.938 31.946C417.374 31.754 416.9 31.496 416.516 31.172C416.132 30.848 415.838 30.464 415.634 30.02C415.442 29.576 415.346 29.09 415.346 28.562C415.346 27.722 415.58 27.05 416.048 26.546C416.516 26.042 417.128 25.688 417.884 25.484V25.34C417.236 25.112 416.714 24.752 416.318 24.26C415.922 23.768 415.724 23.162 415.724 22.442C415.724 21.47 416.084 20.69 416.804 20.102C417.536 19.514 418.568 19.22 419.9 19.22C421.232 19.22 422.258 19.514 422.978 20.102C423.71 20.69 424.076 21.47 424.076 22.442C424.076 23.162 423.878 23.768 423.482 24.26C423.086 24.752 422.564 25.112 421.916 25.34V25.484C422.672 25.688 423.284 26.042 423.752 26.546C424.22 27.05 424.454 27.722 424.454 28.562C424.454 29.09 424.352 29.576 424.148 30.02C423.956 30.464 423.668 30.848 423.284 31.172C422.9 31.496 422.426 31.754 421.862 31.946C421.298 32.126 420.644 32.216 419.9 32.216ZM419.9 30.614C420.692 30.614 421.298 30.44 421.718 30.092C422.15 29.744 422.366 29.252 422.366 28.616V28.238C422.366 27.602 422.15 27.11 421.718 26.762C421.298 26.414 420.692 26.24 419.9 26.24C419.108 26.24 418.496 26.414 418.064 26.762C417.644 27.11 417.434 27.602 417.434 28.238V28.616C417.434 29.252 417.644 29.744 418.064 30.092C418.496 30.44 419.108 30.614 419.9 30.614ZM419.9 24.692C420.62 24.692 421.166 24.536 421.538 24.224C421.922 23.9 422.114 23.45 422.114 22.874V22.64C422.114 22.064 421.922 21.62 421.538 21.308C421.166 20.984 420.62 20.822 419.9 20.822C419.18 20.822 418.628 20.984 418.244 21.308C417.872 21.62 417.686 22.064 417.686 22.64V22.874C417.686 23.45 417.872 23.9 418.244 24.224C418.628 24.536 419.18 24.692 419.9 24.692Z" fill="#E4E6FE"/>
<path d="M405.291 32V30.326H408.819V20.912H408.675L405.759 24.026L404.517 22.91L407.721 19.436H410.835V30.326H413.877V32H405.291Z" fill="#E4E6FE"/>
<path d="M346.504 800.216C345.76 800.216 345.106 800.126 344.542 799.946C343.978 799.754 343.504 799.496 343.12 799.172C342.736 798.848 342.442 798.464 342.238 798.02C342.046 797.576 341.95 797.09 341.95 796.562C341.95 795.722 342.184 795.05 342.652 794.546C343.12 794.042 343.732 793.688 344.488 793.484V793.34C343.84 793.112 343.318 792.752 342.922 792.26C342.526 791.768 342.328 791.162 342.328 790.442C342.328 789.47 342.688 788.69 343.408 788.102C344.14 787.514 345.172 787.22 346.504 787.22C347.836 787.22 348.862 787.514 349.582 788.102C350.314 788.69 350.68 789.47 350.68 790.442C350.68 791.162 350.482 791.768 350.086 792.26C349.69 792.752 349.168 793.112 348.52 793.34V793.484C349.276 793.688 349.888 794.042 350.356 794.546C350.824 795.05 351.058 795.722 351.058 796.562C351.058 797.09 350.956 797.576 350.752 798.02C350.56 798.464 350.272 798.848 349.888 799.172C349.504 799.496 349.03 799.754 348.466 799.946C347.902 800.126 347.248 800.216 346.504 800.216ZM346.504 798.614C347.296 798.614 347.902 798.44 348.322 798.092C348.754 797.744 348.97 797.252 348.97 796.616V796.238C348.97 795.602 348.754 795.11 348.322 794.762C347.902 794.414 347.296 794.24 346.504 794.24C345.712 794.24 345.1 794.414 344.668 794.762C344.248 795.11 344.038 795.602 344.038 796.238V796.616C344.038 797.252 344.248 797.744 344.668 798.092C345.1 798.44 345.712 798.614 346.504 798.614ZM346.504 792.692C347.224 792.692 347.77 792.536 348.142 792.224C348.526 791.9 348.718 791.45 348.718 790.874V790.64C348.718 790.064 348.526 789.62 348.142 789.308C347.77 788.984 347.224 788.822 346.504 788.822C345.784 788.822 345.232 788.984 344.848 789.308C344.476 789.62 344.29 790.064 344.29 790.64V790.874C344.29 791.45 344.476 791.9 344.848 792.224C345.232 792.536 345.784 792.692 346.504 792.692Z" fill="#E4E6FE"/>
<path d="M349.542 32L354.204 21.11H349.308V23.432H347.562V19.436H356.22V21.2L351.684 32H349.542Z" fill="#E4E6FE"/>
<path d="M337.291 32V30.326H340.819V20.912H340.675L337.759 24.026L336.517 22.91L339.721 19.436H342.835V30.326H345.877V32H337.291Z" fill="#E4E6FE"/>
<path d="M282.949 792.116C282.949 793.028 282.811 793.886 282.535 794.69C282.259 795.494 281.899 796.232 281.455 796.904C281.011 797.576 280.519 798.176 279.979 798.704C279.439 799.232 278.905 799.664 278.377 800H275.677C276.397 799.484 277.045 798.986 277.621 798.506C278.197 798.026 278.695 797.534 279.115 797.03C279.547 796.526 279.907 795.998 280.195 795.446C280.483 794.882 280.705 794.258 280.861 793.574L280.735 793.538C280.603 793.79 280.447 794.03 280.267 794.258C280.087 794.474 279.877 794.666 279.637 794.834C279.397 795.002 279.121 795.134 278.809 795.23C278.497 795.326 278.143 795.374 277.747 795.374C277.207 795.374 276.709 795.284 276.253 795.104C275.797 794.924 275.401 794.666 275.065 794.33C274.729 793.982 274.465 793.568 274.273 793.088C274.093 792.608 274.003 792.068 274.003 791.468C274.003 790.844 274.105 790.274 274.309 789.758C274.525 789.23 274.825 788.78 275.209 788.408C275.605 788.036 276.079 787.748 276.631 787.544C277.183 787.328 277.795 787.22 278.467 787.22C279.163 787.22 279.787 787.334 280.339 787.562C280.903 787.79 281.377 788.12 281.761 788.552C282.145 788.972 282.439 789.482 282.643 790.082C282.847 790.682 282.949 791.36 282.949 792.116ZM278.485 793.772C279.241 793.772 279.829 793.568 280.249 793.16C280.669 792.74 280.879 792.152 280.879 791.396V791.216C280.879 790.46 280.669 789.878 280.249 789.47C279.829 789.05 279.241 788.84 278.485 788.84C277.717 788.84 277.123 789.05 276.703 789.47C276.283 789.878 276.073 790.46 276.073 791.216V791.396C276.073 792.152 276.283 792.74 276.703 793.16C277.123 793.568 277.717 793.772 278.485 793.772Z" fill="#E4E6FE"/>
<path d="M283.936 32.216C283.228 32.216 282.598 32.102 282.046 31.874C281.494 31.646 281.026 31.322 280.642 30.902C280.258 30.47 279.964 29.954 279.76 29.354C279.556 28.754 279.454 28.076 279.454 27.32C279.454 26.408 279.592 25.55 279.868 24.746C280.144 23.942 280.504 23.204 280.948 22.532C281.392 21.86 281.884 21.266 282.424 20.75C282.964 20.222 283.498 19.784 284.026 19.436H286.726C286.006 19.952 285.358 20.45 284.782 20.93C284.206 21.41 283.702 21.902 283.27 22.406C282.85 22.91 282.496 23.444 282.208 24.008C281.92 24.56 281.698 25.178 281.542 25.862L281.668 25.898C281.8 25.646 281.956 25.412 282.136 25.196C282.316 24.968 282.526 24.77 282.766 24.602C283.006 24.434 283.282 24.302 283.594 24.206C283.906 24.11 284.26 24.062 284.656 24.062C285.196 24.062 285.694 24.152 286.15 24.332C286.606 24.512 287.002 24.776 287.338 25.124C287.674 25.46 287.932 25.868 288.112 26.348C288.304 26.828 288.4 27.368 288.4 27.968C288.4 28.592 288.292 29.168 288.076 29.696C287.872 30.212 287.572 30.656 287.176 31.028C286.792 31.4 286.324 31.694 285.772 31.91C285.22 32.114 284.608 32.216 283.936 32.216ZM283.918 30.596C284.686 30.596 285.28 30.392 285.7 29.984C286.12 29.564 286.33 28.976 286.33 28.22V28.04C286.33 27.284 286.12 26.702 285.7 26.294C285.28 25.874 284.686 25.664 283.918 25.664C283.162 25.664 282.574 25.874 282.154 26.294C281.734 26.702 281.524 27.284 281.524 28.04V28.22C281.524 28.976 281.734 29.564 282.154 29.984C282.574 30.392 283.162 30.596 283.918 30.596Z" fill="#E4E6FE"/>
<path d="M269.291 32V30.326H272.819V20.912H272.675L269.759 24.026L268.517 22.91L271.721 19.436H274.835V30.326H277.877V32H269.291Z" fill="#E4E6FE"/>
<path d="M215.9 800.216C215.108 800.216 214.418 800.072 213.83 799.784C213.254 799.484 212.774 799.058 212.39 798.506C212.018 797.954 211.742 797.276 211.562 796.472C211.382 795.668 211.292 794.75 211.292 793.718C211.292 792.698 211.382 791.786 211.562 790.982C211.742 790.166 212.018 789.482 212.39 788.93C212.774 788.378 213.254 787.958 213.83 787.67C214.418 787.37 215.108 787.22 215.9 787.22C216.692 787.22 217.376 787.37 217.952 787.67C218.54 787.958 219.02 788.378 219.392 788.93C219.776 789.482 220.058 790.166 220.238 790.982C220.418 791.786 220.508 792.698 220.508 793.718C220.508 794.75 220.418 795.668 220.238 796.472C220.058 797.276 219.776 797.954 219.392 798.506C219.02 799.058 218.54 799.484 217.952 799.784C217.376 800.072 216.692 800.216 215.9 800.216ZM215.9 798.56C216.812 798.56 217.46 798.224 217.844 797.552C218.24 796.868 218.438 795.95 218.438 794.798V792.638C218.438 791.486 218.24 790.574 217.844 789.902C217.46 789.218 216.812 788.876 215.9 788.876C215.444 788.876 215.054 788.966 214.73 789.146C214.406 789.314 214.142 789.566 213.938 789.902C213.734 790.226 213.584 790.622 213.488 791.09C213.404 791.546 213.362 792.062 213.362 792.638V794.798C213.362 795.374 213.404 795.896 213.488 796.364C213.584 796.82 213.734 797.216 213.938 797.552C214.142 797.876 214.406 798.128 214.73 798.308C215.054 798.476 215.444 798.56 215.9 798.56ZM215.9 794.78C215.48 794.78 215.186 794.696 215.018 794.528C214.862 794.36 214.784 794.156 214.784 793.916V793.52C214.784 793.28 214.862 793.076 215.018 792.908C215.186 792.74 215.48 792.656 215.9 792.656C216.32 792.656 216.608 792.74 216.764 792.908C216.932 793.076 217.016 793.28 217.016 793.52V793.916C217.016 794.156 216.932 794.36 216.764 794.528C216.608 794.696 216.32 794.78 215.9 794.78Z" fill="#E4E6FE"/>
<path d="M201.291 800V798.326H204.819V788.912H204.675L201.759 792.026L200.517 790.91L203.721 787.436H206.835V798.326H209.877V800H201.291Z" fill="#E4E6FE"/>
<path d="M219.698 21.182H213.992L213.668 25.646H213.812C214.1 25.154 214.448 24.764 214.856 24.476C215.264 24.176 215.822 24.026 216.53 24.026C217.07 24.026 217.568 24.116 218.024 24.296C218.492 24.476 218.894 24.734 219.23 25.07C219.578 25.406 219.848 25.82 220.04 26.312C220.244 26.792 220.346 27.338 220.346 27.95C220.346 28.574 220.244 29.15 220.04 29.678C219.836 30.194 219.542 30.644 219.158 31.028C218.774 31.4 218.3 31.694 217.736 31.91C217.172 32.114 216.53 32.216 215.81 32.216C215.246 32.216 214.742 32.15 214.298 32.018C213.866 31.898 213.476 31.736 213.128 31.532C212.792 31.316 212.498 31.076 212.246 30.812C211.994 30.536 211.772 30.254 211.58 29.966L213.056 28.814C213.212 29.054 213.374 29.282 213.542 29.498C213.722 29.702 213.92 29.882 214.136 30.038C214.352 30.194 214.598 30.314 214.874 30.398C215.162 30.482 215.486 30.524 215.846 30.524C216.626 30.524 217.22 30.314 217.628 29.894C218.036 29.462 218.24 28.88 218.24 28.148V28.004C218.24 27.272 218.03 26.702 217.61 26.294C217.202 25.886 216.614 25.682 215.846 25.682C215.282 25.682 214.838 25.784 214.514 25.988C214.19 26.192 213.908 26.42 213.668 26.672L211.994 26.438L212.462 19.436H219.698V21.182Z" fill="#E4E6FE"/>
<path d="M201.291 32V30.326H204.819V20.912H204.675L201.759 24.026L200.517 22.91L203.721 19.436H206.835V30.326H209.877V32H201.291Z" fill="#E4E6FE"/>
<path d="M144.084 800V798.326H147.612V788.912H147.468L144.552 792.026L143.31 790.91L146.514 787.436H149.628V798.326H152.67V800H144.084Z" fill="#E4E6FE"/>
<path d="M133.291 800V798.326H136.819V788.912H136.675L133.759 792.026L132.517 790.91L135.721 787.436H138.835V798.326H141.877V800H133.291Z" fill="#E4E6FE"/>
<path d="M149.016 32V29.552H143.04V27.824L148.296 19.436H150.942V27.968H152.706V29.552H150.942V32H149.016ZM144.75 27.968H149.016V21.29H148.908L144.75 27.968Z" fill="#E4E6FE"/>
<path d="M133.291 32V30.326H136.819V20.912H136.675L133.759 24.026L132.517 22.91L135.721 19.436H138.835V30.326H141.877V32H133.291Z" fill="#E4E6FE"/>
<path d="M84.3102 800H75.6342V798.074L79.7382 794.492C80.3862 793.916 80.8842 793.37 81.2322 792.854C81.5922 792.338 81.7722 791.792 81.7722 791.216V791.018C81.7722 790.358 81.5922 789.854 81.2322 789.506C80.8722 789.146 80.3502 788.966 79.6662 788.966C78.9702 788.966 78.4302 789.152 78.0462 789.524C77.6742 789.896 77.4042 790.37 77.2362 790.946L75.4722 790.28C75.5922 789.884 75.7662 789.506 75.9942 789.146C76.2222 788.774 76.5102 788.444 76.8582 788.156C77.2182 787.868 77.6382 787.64 78.1182 787.472C78.6102 787.304 79.1742 787.22 79.8102 787.22C80.4582 787.22 81.0342 787.316 81.5382 787.508C82.0542 787.688 82.4862 787.94 82.8342 788.264C83.1822 788.588 83.4462 788.978 83.6262 789.434C83.8062 789.878 83.8962 790.37 83.8962 790.91C83.8962 791.414 83.8182 791.882 83.6622 792.314C83.5182 792.734 83.3082 793.142 83.0322 793.538C82.7682 793.922 82.4502 794.294 82.0782 794.654C81.7062 795.014 81.2982 795.374 80.8542 795.734L77.8122 798.29H84.3102V800Z" fill="#E4E6FE"/>
<path d="M65.2911 800V798.326H68.8191V788.912H68.6751L65.7591 792.026L64.5171 790.91L67.7211 787.436H70.8351V798.326H73.8771V800H65.2911Z" fill="#E4E6FE"/>
<path d="M79.3781 24.62C80.1821 24.62 80.7761 24.452 81.1601 24.116C81.5561 23.768 81.7541 23.336 81.7541 22.82V22.694C81.7541 22.118 81.5621 21.68 81.1781 21.38C80.8061 21.068 80.3021 20.912 79.6661 20.912C79.0541 20.912 78.5321 21.05 78.1001 21.326C77.6801 21.602 77.3261 21.98 77.0381 22.46L75.6701 21.29C75.8621 21.014 76.0841 20.75 76.3361 20.498C76.5881 20.246 76.8761 20.03 77.2001 19.85C77.5241 19.658 77.8961 19.508 78.3161 19.4C78.7361 19.28 79.2101 19.22 79.7381 19.22C80.3261 19.22 80.8721 19.292 81.3761 19.436C81.8801 19.58 82.3181 19.796 82.6901 20.084C83.0621 20.36 83.3501 20.702 83.5541 21.11C83.7581 21.506 83.8601 21.956 83.8601 22.46C83.8601 22.856 83.7941 23.216 83.6621 23.54C83.5421 23.864 83.3681 24.152 83.1401 24.404C82.9241 24.644 82.6661 24.842 82.3661 24.998C82.0661 25.154 81.7481 25.268 81.4121 25.34V25.43C81.7721 25.502 82.1141 25.622 82.4381 25.79C82.7621 25.946 83.0501 26.156 83.3021 26.42C83.5541 26.672 83.7521 26.978 83.8961 27.338C84.0401 27.686 84.1121 28.088 84.1121 28.544C84.1121 29.096 84.0041 29.6 83.7881 30.056C83.5721 30.5 83.2601 30.884 82.8521 31.208C82.4561 31.532 81.9761 31.784 81.4121 31.964C80.8481 32.132 80.2181 32.216 79.5221 32.216C78.9341 32.216 78.4121 32.15 77.9561 32.018C77.5121 31.898 77.1161 31.736 76.7681 31.532C76.4201 31.316 76.1141 31.076 75.8501 30.812C75.5981 30.536 75.3761 30.254 75.1841 29.966L76.6781 28.814C76.9901 29.318 77.3561 29.732 77.7761 30.056C78.2081 30.368 78.7961 30.524 79.5401 30.524C80.3321 30.524 80.9381 30.344 81.3581 29.984C81.7781 29.612 81.9881 29.102 81.9881 28.454V28.31C81.9881 27.662 81.7661 27.17 81.3221 26.834C80.8901 26.486 80.2601 26.312 79.4321 26.312H78.0821V24.62H79.3781Z" fill="#E4E6FE"/>
<path d="M65.2911 32V30.326H68.8191V20.912H68.6751L65.7591 24.026L64.5171 22.91L67.7211 19.436H70.8351V30.326H73.8771V32H65.2911Z" fill="#E4E6FE"/>
<rect x="40" y="40" width="408" height="740" rx="3" fill="#408B62"/>
<rect x="532" y="40" width="408" height="740" rx="3" fill="#408B62"/>
<mask id="mask0_2360_3468" style="mask-type:alpha" maskUnits="userSpaceOnUse" x="40" y="40" width="900" height="740">
<rect x="40" y="40" width="408" height="740" rx="3" fill="#408B62"/>
<rect x="532" y="40" width="408" height="740" rx="3" fill="#408B62"/>
</mask>
<g mask="url(#mask0_2360_3468)">
<path d="M905.603 514.14C905.662 513.673 906.338 513.673 906.397 514.14L940 780H872L905.603 514.14Z" fill="#6AB08D"/>
<path d="M837.603 514.14C837.662 513.673 838.338 513.673 838.397 514.14L872 780H804L837.603 514.14Z" fill="#337351"/>
<path d="M769.603 514.14C769.662 513.673 770.338 513.673 770.397 514.14L804 780H736L769.603 514.14Z" fill="#6AB08D"/>
<path d="M701.603 514.14C701.662 513.673 702.338 513.673 702.397 514.14L736 780H668L701.603 514.14Z" fill="#337351"/>
<path d="M633.603 514.14C633.662 513.673 634.338 513.673 634.397 514.14L668 780H600L633.603 514.14Z" fill="#6AB08D"/>
<path d="M565.603 514.14C565.662 513.673 566.338 513.673 566.397 514.14L600 780H532L565.603 514.14Z" fill="#337351"/>
<path d="M413.603 514.14C413.662 513.673 414.338 513.673 414.397 514.14L448 780H380L413.603 514.14Z" fill="#6AB08D"/>
<path d="M345.603 514.14C345.662 513.673 346.338 513.673 346.397 514.14L380 780H312L345.603 514.14Z" fill="#337351"/>
<path d="M277.603 514.14C277.662 513.673 278.338 513.673 278.397 514.14L312 780H244L277.603 514.14Z" fill="#6AB08D"/>
<path d="M209.603 514.14C209.662 513.673 210.338 513.673 210.397 514.14L244 780H176L209.603 514.14Z" fill="#337351"/>
<path d="M141.603 514.14C141.662 513.673 142.338 513.673 142.397 514.14L176 780H108L141.603 514.14Z" fill="#6AB08D"/>
<path d="M73.6032 514.14C73.6621 513.673 74.3379 513.673 74.3968 514.14L108 780H40L73.6032 514.14Z" fill="#337351"/>
<path d="M74.3968 305.86C74.3379 306.327 73.6621 306.327 73.6032 305.86L40 40L108 40L74.3968 305.86Z" fill="#6AB08D"/>
<path d="M142.397 305.86C142.338 306.327 141.662 306.327 141.603 305.86L108 40L176 40L142.397 305.86Z" fill="#337351"/>
<path d="M210.397 305.86C210.338 306.327 209.662 306.327 209.603 305.86L176 40L244 40L210.397 305.86Z" fill="#6AB08D"/>
<path d="M278.397 305.86C278.338 306.327 277.662 306.327 277.603 305.86L244 40L312 40L278.397 305.86Z" fill="#337351"/>
<path d="M346.397 305.86C346.338 306.327 345.662 306.327 345.603 305.86L312 40L380 40L346.397 305.86Z" fill="#6AB08D"/>
<path d="M414.397 305.86C414.338 306.327 413.662 306.327 413.603 305.86L380 40L448 40L414.397 305.86Z" fill="#337351"/>
<path d="M566.397 305.86C566.338 306.327 565.662 306.327 565.603 305.86L532 40L600 40L566.397 305.86Z" fill="#6AB08D"/>
<path d="M634.397 305.86C634.338 306.327 633.662 306.327 633.603 305.86L600 40L668 40L634.397 305.86Z" fill="#337351"/>
<path d="M702.397 305.86C702.338 306.327 701.662 306.327 701.603 305.86L668 40L736 40L702.397 305.86Z" fill="#6AB08D"/>
<path d="M770.397 305.86C770.338 306.327 769.662 306.327 769.603 305.86L736 40L804 40L770.397 305.86Z" fill="#337351"/>
<path d="M838.397 305.86C838.338 306.327 837.662 306.327 837.603 305.86L804 40L872 40L838.397 305.86Z" fill="#6AB08D"/>
<path d="M906.397 305.86C906.338 306.327 905.662 306.327 905.603 305.86L872 40L940 40L906.397 305.86Z" fill="#337351"/>
</g>
<circle cx="906" cy="747" r="33" fill="#E4E6FE"/>
<circle cx="906" cy="747" r="33" fill="url(#paint0_linear_2360_3468)" fill-opacity="0.3"/>
<circle cx="74" cy="747" r="33" fill="#E4E6FE"/>
<circle cx="74" cy="747" r="33" fill="url(#paint1_linear_2360_3468)" fill-opacity="0.3"/>
<circle cx="566" cy="337" r="33" fill="#E4E6FE"/>
<circle cx="566" cy="337" r="33" fill="url(#paint2_linear_2360_3468)" fill-opacity="0.3"/>
<circle cx="74" cy="615" r="33" fill="#E4E6FE"/>
<circle cx="74" cy="615" r="33" fill="url(#paint3_linear_2360_3468)" fill-opacity="0.3"/>
<circle cx="566" cy="205" r="33" fill="#E4E6FE"/>
<circle cx="566" cy="205" r="33" fill="url(#paint4_linear_2360_3468)" fill-opacity="0.3"/>
<circle cx="346" cy="205" r="33" fill="#E4E6FE"/>
<circle cx="346" cy="205" r="33" fill="url(#paint5_linear_2360_3468)" fill-opacity="0.3"/>
<circle cx="74" cy="681" r="33" fill="#E4E6FE"/>
<circle cx="74" cy="681" r="33" fill="url(#paint6_linear_2360_3468)" fill-opacity="0.3"/>
<circle cx="566" cy="271" r="33" fill="#E4E6FE"/>
<circle cx="566" cy="271" r="33" fill="url(#paint7_linear_2360_3468)" fill-opacity="0.3"/>
<circle cx="906" cy="681" r="33" fill="#E4E6FE"/>
<circle cx="906" cy="681" r="33" fill="url(#paint8_linear_2360_3468)" fill-opacity="0.3"/>
<circle cx="74" cy="549" r="33" fill="#E4E6FE"/>
<circle cx="74" cy="549" r="33" fill="url(#paint9_linear_2360_3468)" fill-opacity="0.3"/>
<circle cx="566" cy="139" r="33" fill="#E4E6FE"/>
<circle cx="566" cy="139" r="33" fill="url(#paint10_linear_2360_3468)" fill-opacity="0.3"/>
<circle cx="346" cy="139" r="33" fill="#E4E6FE"/>
<circle cx="346" cy="139" r="33" fill="url(#paint11_linear_2360_3468)" fill-opacity="0.3"/>
<circle cx="74" cy="483" r="33" fill="#E4E6FE"/>
<circle cx="74" cy="483" r="33" fill="url(#paint12_linear_2360_3468)" fill-opacity="0.3"/>
<circle cx="566" cy="73" r="33" fill="#E4E6FE"/>
<circle cx="566" cy="73" r="33" fill="url(#paint13_linear_2360_3468)" fill-opacity="0.3"/>
<circle cx="346" cy="73" r="33" fill="#E4E6FE"/>
<circle cx="346" cy="73" r="33" fill="url(#paint14_linear_2360_3468)" fill-opacity="0.3"/>
<circle cx="566" cy="747" r="33" fill="#133B45"/>
<circle cx="566" cy="747" r="33" fill="url(#paint15_linear_2360_3468)" fill-opacity="0.3"/>
<circle cx="74" cy="337" r="33" fill="#133B45"/>
<circle cx="74" cy="337" r="33" fill="url(#paint16_linear_2360_3468)" fill-opacity="0.3"/>
<circle cx="346" cy="747" r="33" fill="#133B45"/>
<circle cx="346" cy="747" r="33" fill="url(#paint17_linear_2360_3468)" fill-opacity="0.3"/>
<circle cx="566" cy="681" r="33" fill="#133B45"/>
<circle cx="566" cy="681" r="33" fill="url(#paint18_linear_2360_3468)" fill-opacity="0.3"/>
<circle cx="74" cy="271" r="33" fill="#133B45"/>
<circle cx="74" cy="271" r="33" fill="url(#paint19_linear_2360_3468)" fill-opacity="0.3"/>
<circle cx="346" cy="681" r="33" fill="#133B45"/>
<circle cx="346" cy="681" r="33" fill="url(#paint20_linear_2360_3468)" fill-opacity="0.3"/>
<circle cx="566" cy="615" r="33" fill="#133B45"/>
<circle cx="566" cy="615" r="33" fill="url(#paint21_linear_2360_3468)" fill-opacity="0.3"/>
<circle cx="74" cy="205" r="33" fill="#133B45"/>
<circle cx="74" cy="205" r="33" fill="url(#paint22_linear_2360_3468)" fill-opacity="0.3"/>
<circle cx="346" cy="615" r="33" fill="#133B45"/>
<circle cx="346" cy="615" r="33" fill="url(#paint23_linear_2360_3468)" fill-opacity="0.3"/>
<circle cx="566" cy="549" r="33" fill="#133B45"/>
<circle cx="566" cy="549" r="33" fill="url(#paint24_linear_2360_3468)" fill-opacity="0.3"/>
<circle cx="906" cy="139" r="33" fill="#133B45"/>
<circle cx="906" cy="139" r="33" fill="url(#paint25_linear_2360_3468)" fill-opacity="0.3"/>
<circle cx="74" cy="139" r="33" fill="#133B45"/>
<circle cx="74" cy="139" r="33" fill="url(#paint26_linear_2360_3468)" fill-opacity="0.3"/>
<circle cx="566" cy="483" r="33" fill="#133B45"/>
<circle cx="566" cy="483" r="33" fill="url(#paint27_linear_2360_3468)" fill-opacity="0.3"/>
<circle cx="906" cy="73" r="33" fill="#133B45"/>
<circle cx="906" cy="73" r="33" fill="url(#paint28_linear_2360_3468)" fill-opacity="0.3"/>
<circle cx="74" cy="73" r="33" fill="#133B45"/>
<circle cx="74" cy="73" r="33" fill="url(#paint29_linear_2360_3468)" fill-opacity="0.3"/>
<path d="M747.804 86.5661C750.663 86.2971 753.811 86.0872 754.799 86.0999C757.607 86.1355 759.741 87.2983 759.823 88.8379C759.934 90.9315 757.513 91.8481 750.959 92.1945C747.754 92.363 745.167 92.5977 745.209 92.7146C745.309 92.9925 770.215 101.116 780.253 104.144C784.537 105.437 793.819 108.208 800.879 110.301C807.938 112.395 858.094 129.896 859.025 130.323C860.91 131.188 861.759 133.02 860.5 133.5C858.347 134.321 757.887 103.217 739.859 96.8337L735.796 95.3956L737.51 97.3032C739.693 99.7327 742.431 104.738 742.041 105.588C741.24 107.332 736.497 104.719 730.714 99.3475C726.196 95.1506 724.614 92.0274 725.75 89.5513C726.711 87.4589 728.774 86.9547 736.152 87.0083C739.701 87.0337 744.945 86.835 747.804 86.5661Z" fill="#FFD600"/>
<path d="M147.576 645.05C149.95 632.478 150.968 630.438 154.309 631.562C156.004 632.132 156.743 633.269 157.206 636.015C158.667 644.682 153.766 684.556 150.439 691.071C148.653 694.569 144.921 695.788 142.309 693.726C139.112 691.202 131.165 674.35 129.02 665.549C126.629 655.737 127.735 654.873 134.129 661.552L138.437 666.052L138.212 662.636C137.697 654.786 114.629 527.162 111.546 515.111C100.329 471.247 79.3592 395.175 77.2977 390.867C75.1401 386.356 77.3796 383.367 80.992 385.938C84.5168 388.446 88.4596 400.042 103.191 451.234C120.441 511.178 119.35 506.306 132.944 584.014L145.523 655.923L147.576 645.05Z" fill="#D54646"/>
<path d="M151.576 641.05C153.95 628.478 154.968 626.438 158.309 627.562C160.004 628.132 160.743 629.269 161.206 632.015C162.667 640.682 157.766 680.556 154.439 687.071C152.653 690.569 148.921 691.788 146.309 689.726C143.112 687.202 135.165 670.35 133.02 661.549C130.629 651.737 131.735 650.873 138.129 657.552L142.437 662.052L142.212 658.636C141.697 650.786 118.629 523.162 115.546 511.111C104.329 467.247 83.3592 391.175 81.2977 386.867C79.1401 382.356 81.3796 379.367 84.992 381.938C88.5168 384.446 92.4596 396.042 107.191 447.234C124.441 507.178 123.35 502.306 136.944 580.014L149.523 651.923L151.576 641.05Z" fill="#FFD600"/>
<path d="M202.764 627.376C203.519 614.604 204.27 612.451 207.727 613.142C209.481 613.491 210.359 614.524 211.167 617.189C213.718 625.6 213.928 665.773 211.457 672.659C210.13 676.356 206.584 678.04 203.731 676.326C200.239 674.23 190.212 658.526 186.966 650.069C183.347 640.64 184.334 639.642 191.525 645.454L196.37 649.369L195.713 646.01C194.204 638.289 155.091 514.635 150.501 503.075C133.796 460.993 103.322 388.206 100.729 384.195C98.0154 379.995 99.8566 376.746 103.767 378.836C107.582 380.876 112.967 391.876 134.09 440.778C158.824 498.042 157.121 493.349 180.488 568.696L202.111 638.422L202.764 627.376Z" fill="#D54646"/>
<rect x="676" y="384" width="52" height="52" rx="6" fill="#23454E"/>
<circle cx="717" cy="395" r="5" fill="#D6D7ED"/>
<circle cx="717" cy="395" r="5" fill="white" fill-opacity="0.65"/>
<circle cx="702" cy="410" r="5" fill="#D6D7ED"/>
<circle cx="702" cy="410" r="5" fill="white" fill-opacity="0.65"/>
<circle cx="687" cy="425" r="5" fill="#D6D7ED"/>
<circle cx="687" cy="425" r="5" fill="white" fill-opacity="0.65"/>
<rect x="744" y="384" width="52" height="52" rx="6" fill="#23454E"/>
<circle cx="785" cy="395" r="5" fill="#D6D7ED"/>
<circle cx="785" cy="395" r="5" fill="white" fill-opacity="0.65"/>
<circle cx="755" cy="425" r="5" fill="#D6D7ED"/>
<circle cx="755" cy="425" r="5" fill="white" fill-opacity="0.65"/>
<defs>
<linearGradient id="paint0_linear_2360_3468" x1="906" y1="710.118" x2="906" y2="786.309" gradientUnits="userSpaceOnUse">
<stop stop-opacity="0"/>
<stop offset="1" stop-color="white"/>
</linearGradient>
<linearGradient id="paint1_linear_2360_3468" x1="74" y1="710.118" x2="74" y2="786.309" gradientUnits="userSpaceOnUse">
<stop stop-opacity="0"/>
<stop offset="1" stop-color="white"/>
</linearGradient>
<linearGradient id="paint2_linear_2360_3468" x1="566" y1="300.118" x2="566" y2="376.309" gradientUnits="userSpaceOnUse">
<stop stop-opacity="0"/>
<stop offset="1" stop-color="white"/>
</linearGradient>
<linearGradient id="paint3_linear_2360_3468" x1="74" y1="578.118" x2="74" y2="654.309" gradientUnits="userSpaceOnUse">
<stop stop-opacity="0"/>
<stop offset="1" stop-color="white"/>
</linearGradient>
<linearGradient id="paint4_linear_2360_3468" x1="566" y1="168.118" x2="566" y2="244.309" gradientUnits="userSpaceOnUse">
<stop stop-opacity="0"/>
<stop offset="1" stop-color="white"/>
</linearGradient>
<linearGradient id="paint5_linear_2360_3468" x1="346" y1="168.118" x2="346" y2="244.309" gradientUnits="userSpaceOnUse">
<stop stop-opacity="0"/>
<stop offset="1" stop-color="white"/>
</linearGradient>
<linearGradient id="paint6_linear_2360_3468" x1="74" y1="644.118" x2="74" y2="720.309" gradientUnits="userSpaceOnUse">
<stop stop-opacity="0"/>
<stop offset="1" stop-color="white"/>
</linearGradient>
<linearGradient id="paint7_linear_2360_3468" x1="566" y1="234.118" x2="566" y2="310.309" gradientUnits="userSpaceOnUse">
<stop stop-opacity="0"/>
<stop offset="1" stop-color="white"/>
</linearGradient>
<linearGradient id="paint8_linear_2360_3468" x1="906" y1="644.118" x2="906" y2="720.309" gradientUnits="userSpaceOnUse">
<stop stop-opacity="0"/>
<stop offset="1" stop-color="white"/>
</linearGradient>
<linearGradient id="paint9_linear_2360_3468" x1="74" y1="512.118" x2="74" y2="588.309" gradientUnits="userSpaceOnUse">
<stop stop-opacity="0"/>
<stop offset="1" stop-color="white"/>
</linearGradient>
<linearGradient id="paint10_linear_2360_3468" x1="566" y1="102.118" x2="566" y2="178.309" gradientUnits="userSpaceOnUse">
<stop stop-opacity="0"/>
<stop offset="1" stop-color="white"/>
</linearGradient>
<linearGradient id="paint11_linear_2360_3468" x1="346" y1="102.118" x2="346" y2="178.309" gradientUnits="userSpaceOnUse">
<stop stop-opacity="0"/>
<stop offset="1" stop-color="white"/>
</linearGradient>
<linearGradient id="paint12_linear_2360_3468" x1="74" y1="446.118" x2="74" y2="522.309" gradientUnits="userSpaceOnUse">
<stop stop-opacity="0"/>
<stop offset="1" stop-color="white"/>
</linearGradient>
<linearGradient id="paint13_linear_2360_3468" x1="566" y1="36.1176" x2="566" y2="112.309" gradientUnits="userSpaceOnUse">
<stop stop-opacity="0"/>
<stop offset="1" stop-color="white"/>
</linearGradient>
<linearGradient id="paint14_linear_2360_3468" x1="346" y1="36.1176" x2="346" y2="112.309" gradientUnits="userSpaceOnUse">
<stop stop-opacity="0"/>
<stop offset="1" stop-color="white"/>
</linearGradient>
<linearGradient id="paint15_linear_2360_3468" x1="566" y1="710.118" x2="566" y2="786.309" gradientUnits="userSpaceOnUse">
<stop stop-opacity="0"/>
<stop offset="1" stop-color="white"/>
</linearGradient>
<linearGradient id="paint16_linear_2360_3468" x1="74" y1="300.118" x2="74" y2="376.309" gradientUnits="userSpaceOnUse">
<stop stop-opacity="0"/>
<stop offset="1" stop-color="white"/>
</linearGradient>
<linearGradient id="paint17_linear_2360_3468" x1="346" y1="710.118" x2="346" y2="786.309" gradientUnits="userSpaceOnUse">
<stop stop-opacity="0"/>
<stop offset="1" stop-color="white"/>
</linearGradient>
<linearGradient id="paint18_linear_2360_3468" x1="566" y1="644.118" x2="566" y2="720.309" gradientUnits="userSpaceOnUse">
<stop stop-opacity="0"/>
<stop offset="1" stop-color="white"/>
</linearGradient>
<linearGradient id="paint19_linear_2360_3468" x1="74" y1="234.118" x2="74" y2="310.309" gradientUnits="userSpaceOnUse">
<stop stop-opacity="0"/>
<stop offset="1" stop-color="white"/>
</linearGradient>
<linearGradient id="paint20_linear_2360_3468" x1="346" y1="644.118" x2="346" y2="720.309" gradientUnits="userSpaceOnUse">
<stop stop-opacity="0"/>
<stop offset="1" stop-color="white"/>
</linearGradient>
<linearGradient id="paint21_linear_2360_3468" x1="566" y1="578.118" x2="566" y2="654.309" gradientUnits="userSpaceOnUse">
<stop stop-opacity="0"/>
<stop offset="1" stop-color="white"/>
</linearGradient>
<linearGradient id="paint22_linear_2360_3468" x1="74" y1="168.118" x2="74" y2="244.309" gradientUnits="userSpaceOnUse">
<stop stop-opacity="0"/>
<stop offset="1" stop-color="white"/>
</linearGradient>
<linearGradient id="paint23_linear_2360_3468" x1="346" y1="578.118" x2="346" y2="654.309" gradientUnits="userSpaceOnUse">
<stop stop-opacity="0"/>
<stop offset="1" stop-color="white"/>
</linearGradient>
<linearGradient id="paint24_linear_2360_3468" x1="566" y1="512.118" x2="566" y2="588.309" gradientUnits="userSpaceOnUse">
<stop stop-opacity="0"/>
<stop offset="1" stop-color="white"/>
</linearGradient>
<linearGradient id="paint25_linear_2360_3468" x1="906" y1="102.118" x2="906" y2="178.309" gradientUnits="userSpaceOnUse">
<stop stop-opacity="0"/>
<stop offset="1" stop-color="white"/>
</linearGradient>
<linearGradient id="paint26_linear_2360_3468" x1="74" y1="102.118" x2="74" y2="178.309" gradientUnits="userSpaceOnUse">
<stop stop-opacity="0"/>
<stop offset="1" stop-color="white"/>
</linearGradient>
<linearGradient id="paint27_linear_2360_3468" x1="566" y1="446.118" x2="566" y2="522.309" gradientUnits="userSpaceOnUse">
<stop stop-opacity="0"/>
<stop offset="1" stop-color="white"/>
</linearGradient>
<linearGradient id="paint28_linear_2360_3468" x1="906" y1="36.1176" x2="906" y2="112.309" gradientUnits="userSpaceOnUse">
<stop stop-opacity="0"/>
<stop offset="1" stop-color="white"/>
</linearGradient>
<linearGradient id="paint29_linear_2360_3468" x1="74" y1="36.1176" x2="74" y2="112.309" gradientUnits="userSpaceOnUse">
<stop stop-opacity="0"/>
<stop offset="1" stop-color="white"/>
</linearGradient>
</defs>
</svg>
