<svg width="980" height="820" viewBox="0 0 980 820" fill="none" xmlns="http://www.w3.org/2000/svg">
<rect width="980" height="820" rx="16" fill="#05110A"/>
<path d="M901.687 800V798.326H905.215V788.912H905.071L902.155 792.026L900.913 790.91L904.117 787.436H907.231V798.326H910.273V800H901.687Z" fill="#E4E6FE"/>
<path d="M912.016 32V29.552H906.04V27.824L911.296 19.436H913.942V27.968H915.706V29.552H913.942V32H912.016ZM907.75 27.968H912.016V21.29H911.908L907.75 27.968Z" fill="#E4E6FE"/>
<path d="M904.517 32H895.841V30.074L899.945 26.492C900.593 25.916 901.091 25.37 901.439 24.854C901.799 24.338 901.979 23.792 901.979 23.216V23.018C901.979 22.358 901.799 21.854 901.439 21.506C901.079 21.146 900.557 20.966 899.873 20.966C899.177 20.966 898.637 21.152 898.253 21.524C897.881 21.896 897.611 22.37 897.443 22.946L895.679 22.28C895.799 21.884 895.973 21.506 896.201 21.146C896.429 20.774 896.717 20.444 897.065 20.156C897.425 19.868 897.845 19.64 898.325 19.472C898.817 19.304 899.381 19.22 900.017 19.22C900.665 19.22 901.241 19.316 901.745 19.508C902.261 19.688 902.693 19.94 903.041 20.264C903.389 20.588 903.653 20.978 903.833 21.434C904.013 21.878 904.103 22.37 904.103 22.91C904.103 23.414 904.025 23.882 903.869 24.314C903.725 24.734 903.515 25.142 903.239 25.538C902.975 25.922 902.657 26.294 902.285 26.654C901.913 27.014 901.505 27.374 901.061 27.734L898.019 30.29H904.517V32Z" fill="#E4E6FE"/>
<path d="M841.913 800H833.237V798.074L837.341 794.492C837.989 793.916 838.487 793.37 838.835 792.854C839.195 792.338 839.375 791.792 839.375 791.216V791.018C839.375 790.358 839.195 789.854 838.835 789.506C838.475 789.146 837.953 788.966 837.269 788.966C836.573 788.966 836.033 789.152 835.649 789.524C835.277 789.896 835.007 790.37 834.839 790.946L833.075 790.28C833.195 789.884 833.369 789.506 833.597 789.146C833.825 788.774 834.113 788.444 834.461 788.156C834.821 787.868 835.241 787.64 835.721 787.472C836.213 787.304 836.777 787.22 837.413 787.22C838.061 787.22 838.637 787.316 839.141 787.508C839.657 787.688 840.089 787.94 840.437 788.264C840.785 788.588 841.049 788.978 841.229 789.434C841.409 789.878 841.499 790.37 841.499 790.91C841.499 791.414 841.421 791.882 841.265 792.314C841.121 792.734 840.911 793.142 840.635 793.538C840.371 793.922 840.053 794.294 839.681 794.654C839.309 795.014 838.901 795.374 838.457 795.734L835.415 798.29H841.913V800Z" fill="#E4E6FE"/>
<path d="M842.378 24.62C843.182 24.62 843.776 24.452 844.16 24.116C844.556 23.768 844.754 23.336 844.754 22.82V22.694C844.754 22.118 844.562 21.68 844.178 21.38C843.806 21.068 843.302 20.912 842.666 20.912C842.054 20.912 841.532 21.05 841.1 21.326C840.68 21.602 840.326 21.98 840.038 22.46L838.67 21.29C838.862 21.014 839.084 20.75 839.336 20.498C839.588 20.246 839.876 20.03 840.2 19.85C840.524 19.658 840.896 19.508 841.316 19.4C841.736 19.28 842.21 19.22 842.738 19.22C843.326 19.22 843.872 19.292 844.376 19.436C844.88 19.58 845.318 19.796 845.69 20.084C846.062 20.36 846.35 20.702 846.554 21.11C846.758 21.506 846.86 21.956 846.86 22.46C846.86 22.856 846.794 23.216 846.662 23.54C846.542 23.864 846.368 24.152 846.14 24.404C845.924 24.644 845.666 24.842 845.366 24.998C845.066 25.154 844.748 25.268 844.412 25.34V25.43C844.772 25.502 845.114 25.622 845.438 25.79C845.762 25.946 846.05 26.156 846.302 26.42C846.554 26.672 846.752 26.978 846.896 27.338C847.04 27.686 847.112 28.088 847.112 28.544C847.112 29.096 847.004 29.6 846.788 30.056C846.572 30.5 846.26 30.884 845.852 31.208C845.456 31.532 844.976 31.784 844.412 31.964C843.848 32.132 843.218 32.216 842.522 32.216C841.934 32.216 841.412 32.15 840.956 32.018C840.512 31.898 840.116 31.736 839.768 31.532C839.42 31.316 839.114 31.076 838.85 30.812C838.598 30.536 838.376 30.254 838.184 29.966L839.678 28.814C839.99 29.318 840.356 29.732 840.776 30.056C841.208 30.368 841.796 30.524 842.54 30.524C843.332 30.524 843.938 30.344 844.358 29.984C844.778 29.612 844.988 29.102 844.988 28.454V28.31C844.988 27.662 844.766 27.17 844.322 26.834C843.89 26.486 843.26 26.312 842.432 26.312H841.082V24.62H842.378Z" fill="#E4E6FE"/>
<path d="M836.517 32H827.841V30.074L831.945 26.492C832.593 25.916 833.091 25.37 833.439 24.854C833.799 24.338 833.979 23.792 833.979 23.216V23.018C833.979 22.358 833.799 21.854 833.439 21.506C833.079 21.146 832.557 20.966 831.873 20.966C831.177 20.966 830.637 21.152 830.253 21.524C829.881 21.896 829.611 22.37 829.443 22.946L827.679 22.28C827.799 21.884 827.973 21.506 828.201 21.146C828.429 20.774 828.717 20.444 829.065 20.156C829.425 19.868 829.845 19.64 830.325 19.472C830.817 19.304 831.381 19.22 832.017 19.22C832.665 19.22 833.241 19.316 833.745 19.508C834.261 19.688 834.693 19.94 835.041 20.264C835.389 20.588 835.653 20.978 835.833 21.434C836.013 21.878 836.103 22.37 836.103 22.91C836.103 23.414 836.025 23.882 835.869 24.314C835.725 24.734 835.515 25.142 835.239 25.538C834.975 25.922 834.657 26.294 834.285 26.654C833.913 27.014 833.505 27.374 833.061 27.734L830.019 30.29H836.517V32Z" fill="#E4E6FE"/>
<path d="M768.981 792.62C769.785 792.62 770.379 792.452 770.763 792.116C771.159 791.768 771.357 791.336 771.357 790.82V790.694C771.357 790.118 771.165 789.68 770.781 789.38C770.409 789.068 769.905 788.912 769.269 788.912C768.657 788.912 768.135 789.05 767.703 789.326C767.283 789.602 766.929 789.98 766.641 790.46L765.273 789.29C765.465 789.014 765.687 788.75 765.939 788.498C766.191 788.246 766.479 788.03 766.803 787.85C767.127 787.658 767.499 787.508 767.919 787.4C768.339 787.28 768.813 787.22 769.341 787.22C769.929 787.22 770.475 787.292 770.979 787.436C771.483 787.58 771.921 787.796 772.293 788.084C772.665 788.36 772.953 788.702 773.157 789.11C773.361 789.506 773.463 789.956 773.463 790.46C773.463 790.856 773.397 791.216 773.265 791.54C773.145 791.864 772.971 792.152 772.743 792.404C772.527 792.644 772.269 792.842 771.969 792.998C771.669 793.154 771.351 793.268 771.015 793.34V793.43C771.375 793.502 771.717 793.622 772.041 793.79C772.365 793.946 772.653 794.156 772.905 794.42C773.157 794.672 773.355 794.978 773.499 795.338C773.643 795.686 773.715 796.088 773.715 796.544C773.715 797.096 773.607 797.6 773.391 798.056C773.175 798.5 772.863 798.884 772.455 799.208C772.059 799.532 771.579 799.784 771.015 799.964C770.451 800.132 769.821 800.216 769.125 800.216C768.537 800.216 768.015 800.15 767.559 800.018C767.115 799.898 766.719 799.736 766.371 799.532C766.023 799.316 765.717 799.076 765.453 798.812C765.201 798.536 764.979 798.254 764.787 797.966L766.281 796.814C766.593 797.318 766.959 797.732 767.379 798.056C767.811 798.368 768.399 798.524 769.143 798.524C769.935 798.524 770.541 798.344 770.961 797.984C771.381 797.612 771.591 797.102 771.591 796.454V796.31C771.591 795.662 771.369 795.17 770.925 794.834C770.493 794.486 769.863 794.312 769.035 794.312H767.685V792.62H768.981Z" fill="#E4E6FE"/>
<path d="M779.31 32H770.634V30.074L774.738 26.492C775.386 25.916 775.884 25.37 776.232 24.854C776.592 24.338 776.772 23.792 776.772 23.216V23.018C776.772 22.358 776.592 21.854 776.232 21.506C775.872 21.146 775.35 20.966 774.666 20.966C773.97 20.966 773.43 21.152 773.046 21.524C772.674 21.896 772.404 22.37 772.236 22.946L770.472 22.28C770.592 21.884 770.766 21.506 770.994 21.146C771.222 20.774 771.51 20.444 771.858 20.156C772.218 19.868 772.638 19.64 773.118 19.472C773.61 19.304 774.174 19.22 774.81 19.22C775.458 19.22 776.034 19.316 776.538 19.508C777.054 19.688 777.486 19.94 777.834 20.264C778.182 20.588 778.446 20.978 778.626 21.434C778.806 21.878 778.896 22.37 778.896 22.91C778.896 23.414 778.818 23.882 778.662 24.314C778.518 24.734 778.308 25.142 778.032 25.538C777.768 25.922 777.45 26.294 777.078 26.654C776.706 27.014 776.298 27.374 775.854 27.734L772.812 30.29H779.31V32Z" fill="#E4E6FE"/>
<path d="M768.517 32H759.841V30.074L763.945 26.492C764.593 25.916 765.091 25.37 765.439 24.854C765.799 24.338 765.979 23.792 765.979 23.216V23.018C765.979 22.358 765.799 21.854 765.439 21.506C765.079 21.146 764.557 20.966 763.873 20.966C763.177 20.966 762.637 21.152 762.253 21.524C761.881 21.896 761.611 22.37 761.443 22.946L759.679 22.28C759.799 21.884 759.973 21.506 760.201 21.146C760.429 20.774 760.717 20.444 761.065 20.156C761.425 19.868 761.845 19.64 762.325 19.472C762.817 19.304 763.381 19.22 764.017 19.22C764.665 19.22 765.241 19.316 765.745 19.508C766.261 19.688 766.693 19.94 767.041 20.264C767.389 20.588 767.653 20.978 767.833 21.434C768.013 21.878 768.103 22.37 768.103 22.91C768.103 23.414 768.025 23.882 767.869 24.314C767.725 24.734 767.515 25.142 767.239 25.538C766.975 25.922 766.657 26.294 766.285 26.654C765.913 27.014 765.505 27.374 765.061 27.734L762.019 30.29H768.517V32Z" fill="#E4E6FE"/>
<path d="M702.619 800V797.552H696.643V795.824L701.899 787.436H704.545V795.968H706.309V797.552H704.545V800H702.619ZM698.353 795.968H702.619V789.29H702.511L698.353 795.968Z" fill="#E4E6FE"/>
<path d="M703.084 32V30.326H706.612V20.912H706.468L703.552 24.026L702.31 22.91L705.514 19.436H708.628V30.326H711.67V32H703.084Z" fill="#E4E6FE"/>
<path d="M700.517 32H691.841V30.074L695.945 26.492C696.593 25.916 697.091 25.37 697.439 24.854C697.799 24.338 697.979 23.792 697.979 23.216V23.018C697.979 22.358 697.799 21.854 697.439 21.506C697.079 21.146 696.557 20.966 695.873 20.966C695.177 20.966 694.637 21.152 694.253 21.524C693.881 21.896 693.611 22.37 693.443 22.946L691.679 22.28C691.799 21.884 691.973 21.506 692.201 21.146C692.429 20.774 692.717 20.444 693.065 20.156C693.425 19.868 693.845 19.64 694.325 19.472C694.817 19.304 695.381 19.22 696.017 19.22C696.665 19.22 697.241 19.316 697.745 19.508C698.261 19.688 698.693 19.94 699.041 20.264C699.389 20.588 699.653 20.978 699.833 21.434C700.013 21.878 700.103 22.37 700.103 22.91C700.103 23.414 700.025 23.882 699.869 24.314C699.725 24.734 699.515 25.142 699.239 25.538C698.975 25.922 698.657 26.294 698.285 26.654C697.913 27.014 697.505 27.374 697.061 27.734L694.019 30.29H700.517V32Z" fill="#E4E6FE"/>
<path d="M637.302 789.182H631.596L631.272 793.646H631.416C631.704 793.154 632.052 792.764 632.46 792.476C632.868 792.176 633.426 792.026 634.134 792.026C634.674 792.026 635.172 792.116 635.628 792.296C636.096 792.476 636.498 792.734 636.834 793.07C637.182 793.406 637.452 793.82 637.644 794.312C637.848 794.792 637.95 795.338 637.95 795.95C637.95 796.574 637.848 797.15 637.644 797.678C637.44 798.194 637.146 798.644 636.762 799.028C636.378 799.4 635.904 799.694 635.34 799.91C634.776 800.114 634.134 800.216 633.414 800.216C632.85 800.216 632.346 800.15 631.902 800.018C631.47 799.898 631.08 799.736 630.732 799.532C630.396 799.316 630.102 799.076 629.85 798.812C629.598 798.536 629.376 798.254 629.184 797.966L630.66 796.814C630.816 797.054 630.978 797.282 631.146 797.498C631.326 797.702 631.524 797.882 631.74 798.038C631.956 798.194 632.202 798.314 632.478 798.398C632.766 798.482 633.09 798.524 633.45 798.524C634.23 798.524 634.824 798.314 635.232 797.894C635.64 797.462 635.844 796.88 635.844 796.148V796.004C635.844 795.272 635.634 794.702 635.214 794.294C634.806 793.886 634.218 793.682 633.45 793.682C632.886 793.682 632.442 793.784 632.118 793.988C631.794 794.192 631.512 794.42 631.272 794.672L629.598 794.438L630.066 787.436H637.302V789.182Z" fill="#E4E6FE"/>
<path d="M638.9 32.216C638.108 32.216 637.418 32.072 636.83 31.784C636.254 31.484 635.774 31.058 635.39 30.506C635.018 29.954 634.742 29.276 634.562 28.472C634.382 27.668 634.292 26.75 634.292 25.718C634.292 24.698 634.382 23.786 634.562 22.982C634.742 22.166 635.018 21.482 635.39 20.93C635.774 20.378 636.254 19.958 636.83 19.67C637.418 19.37 638.108 19.22 638.9 19.22C639.692 19.22 640.376 19.37 640.952 19.67C641.54 19.958 642.02 20.378 642.392 20.93C642.776 21.482 643.058 22.166 643.238 22.982C643.418 23.786 643.508 24.698 643.508 25.718C643.508 26.75 643.418 27.668 643.238 28.472C643.058 29.276 642.776 29.954 642.392 30.506C642.02 31.058 641.54 31.484 640.952 31.784C640.376 32.072 639.692 32.216 638.9 32.216ZM638.9 30.56C639.812 30.56 640.46 30.224 640.844 29.552C641.24 28.868 641.438 27.95 641.438 26.798V24.638C641.438 23.486 641.24 22.574 640.844 21.902C640.46 21.218 639.812 20.876 638.9 20.876C638.444 20.876 638.054 20.966 637.73 21.146C637.406 21.314 637.142 21.566 636.938 21.902C636.734 22.226 636.584 22.622 636.488 23.09C636.404 23.546 636.362 24.062 636.362 24.638V26.798C636.362 27.374 636.404 27.896 636.488 28.364C636.584 28.82 636.734 29.216 636.938 29.552C637.142 29.876 637.406 30.128 637.73 30.308C638.054 30.476 638.444 30.56 638.9 30.56ZM638.9 26.78C638.48 26.78 638.186 26.696 638.018 26.528C637.862 26.36 637.784 26.156 637.784 25.916V25.52C637.784 25.28 637.862 25.076 638.018 24.908C638.186 24.74 638.48 24.656 638.9 24.656C639.32 24.656 639.608 24.74 639.764 24.908C639.932 25.076 640.016 25.28 640.016 25.52V25.916C640.016 26.156 639.932 26.36 639.764 26.528C639.608 26.696 639.32 26.78 638.9 26.78Z" fill="#E4E6FE"/>
<path d="M632.517 32H623.841V30.074L627.945 26.492C628.593 25.916 629.091 25.37 629.439 24.854C629.799 24.338 629.979 23.792 629.979 23.216V23.018C629.979 22.358 629.799 21.854 629.439 21.506C629.079 21.146 628.557 20.966 627.873 20.966C627.177 20.966 626.637 21.152 626.253 21.524C625.881 21.896 625.611 22.37 625.443 22.946L623.679 22.28C623.799 21.884 623.973 21.506 624.201 21.146C624.429 20.774 624.717 20.444 625.065 20.156C625.425 19.868 625.845 19.64 626.325 19.472C626.817 19.304 627.381 19.22 628.017 19.22C628.665 19.22 629.241 19.316 629.745 19.508C630.261 19.688 630.693 19.94 631.041 20.264C631.389 20.588 631.653 20.978 631.833 21.434C632.013 21.878 632.103 22.37 632.103 22.91C632.103 23.414 632.025 23.882 631.869 24.314C631.725 24.734 631.515 25.142 631.239 25.538C630.975 25.922 630.657 26.294 630.285 26.654C629.913 27.014 629.505 27.374 629.061 27.734L626.019 30.29H632.517V32Z" fill="#E4E6FE"/>
<path d="M565.539 800.216C564.831 800.216 564.201 800.102 563.649 799.874C563.097 799.646 562.629 799.322 562.245 798.902C561.861 798.47 561.567 797.954 561.363 797.354C561.159 796.754 561.057 796.076 561.057 795.32C561.057 794.408 561.195 793.55 561.471 792.746C561.747 791.942 562.107 791.204 562.551 790.532C562.995 789.86 563.487 789.266 564.027 788.75C564.567 788.222 565.101 787.784 565.629 787.436H568.329C567.609 787.952 566.961 788.45 566.385 788.93C565.809 789.41 565.305 789.902 564.873 790.406C564.453 790.91 564.099 791.444 563.811 792.008C563.523 792.56 563.301 793.178 563.145 793.862L563.271 793.898C563.403 793.646 563.559 793.412 563.739 793.196C563.919 792.968 564.129 792.77 564.369 792.602C564.609 792.434 564.885 792.302 565.197 792.206C565.509 792.11 565.863 792.062 566.259 792.062C566.799 792.062 567.297 792.152 567.753 792.332C568.209 792.512 568.605 792.776 568.941 793.124C569.277 793.46 569.535 793.868 569.715 794.348C569.907 794.828 570.003 795.368 570.003 795.968C570.003 796.592 569.895 797.168 569.679 797.696C569.475 798.212 569.175 798.656 568.779 799.028C568.395 799.4 567.927 799.694 567.375 799.91C566.823 800.114 566.211 800.216 565.539 800.216ZM565.521 798.596C566.289 798.596 566.883 798.392 567.303 797.984C567.723 797.564 567.933 796.976 567.933 796.22V796.04C567.933 795.284 567.723 794.702 567.303 794.294C566.883 793.874 566.289 793.664 565.521 793.664C564.765 793.664 564.177 793.874 563.757 794.294C563.337 794.702 563.127 795.284 563.127 796.04V796.22C563.127 796.976 563.337 797.564 563.757 797.984C564.177 798.392 564.765 798.596 565.521 798.596Z" fill="#E4E6FE"/>
<path d="M575.345 24.116C575.345 25.028 575.207 25.886 574.931 26.69C574.655 27.494 574.295 28.232 573.851 28.904C573.407 29.576 572.915 30.176 572.375 30.704C571.835 31.232 571.301 31.664 570.773 32H568.073C568.793 31.484 569.441 30.986 570.017 30.506C570.593 30.026 571.091 29.534 571.511 29.03C571.943 28.526 572.303 27.998 572.591 27.446C572.879 26.882 573.101 26.258 573.257 25.574L573.131 25.538C572.999 25.79 572.843 26.03 572.663 26.258C572.483 26.474 572.273 26.666 572.033 26.834C571.793 27.002 571.517 27.134 571.205 27.23C570.893 27.326 570.539 27.374 570.143 27.374C569.603 27.374 569.105 27.284 568.649 27.104C568.193 26.924 567.797 26.666 567.461 26.33C567.125 25.982 566.861 25.568 566.669 25.088C566.489 24.608 566.399 24.068 566.399 23.468C566.399 22.844 566.501 22.274 566.705 21.758C566.921 21.23 567.221 20.78 567.605 20.408C568.001 20.036 568.475 19.748 569.027 19.544C569.579 19.328 570.191 19.22 570.863 19.22C571.559 19.22 572.183 19.334 572.735 19.562C573.299 19.79 573.773 20.12 574.157 20.552C574.541 20.972 574.835 21.482 575.039 22.082C575.243 22.682 575.345 23.36 575.345 24.116ZM570.881 25.772C571.637 25.772 572.225 25.568 572.645 25.16C573.065 24.74 573.275 24.152 573.275 23.396V23.216C573.275 22.46 573.065 21.878 572.645 21.47C572.225 21.05 571.637 20.84 570.881 20.84C570.113 20.84 569.519 21.05 569.099 21.47C568.679 21.878 568.469 22.46 568.469 23.216V23.396C568.469 24.152 568.679 24.74 569.099 25.16C569.519 25.568 570.113 25.772 570.881 25.772Z" fill="#E4E6FE"/>
<path d="M556.291 32V30.326H559.819V20.912H559.675L556.759 24.026L555.517 22.91L558.721 19.436H561.835V30.326H564.877V32H556.291Z" fill="#E4E6FE"/>
<path d="M412.145 800L416.807 789.11H411.911V791.432H410.165V787.436H418.823V789.2L414.287 800H412.145Z" fill="#E4E6FE"/>
<path d="M419.9 32.216C419.156 32.216 418.502 32.126 417.938 31.946C417.374 31.754 416.9 31.496 416.516 31.172C416.132 30.848 415.838 30.464 415.634 30.02C415.442 29.576 415.346 29.09 415.346 28.562C415.346 27.722 415.58 27.05 416.048 26.546C416.516 26.042 417.128 25.688 417.884 25.484V25.34C417.236 25.112 416.714 24.752 416.318 24.26C415.922 23.768 415.724 23.162 415.724 22.442C415.724 21.47 416.084 20.69 416.804 20.102C417.536 19.514 418.568 19.22 419.9 19.22C421.232 19.22 422.258 19.514 422.978 20.102C423.71 20.69 424.076 21.47 424.076 22.442C424.076 23.162 423.878 23.768 423.482 24.26C423.086 24.752 422.564 25.112 421.916 25.34V25.484C422.672 25.688 423.284 26.042 423.752 26.546C424.22 27.05 424.454 27.722 424.454 28.562C424.454 29.09 424.352 29.576 424.148 30.02C423.956 30.464 423.668 30.848 423.284 31.172C422.9 31.496 422.426 31.754 421.862 31.946C421.298 32.126 420.644 32.216 419.9 32.216ZM419.9 30.614C420.692 30.614 421.298 30.44 421.718 30.092C422.15 29.744 422.366 29.252 422.366 28.616V28.238C422.366 27.602 422.15 27.11 421.718 26.762C421.298 26.414 420.692 26.24 419.9 26.24C419.108 26.24 418.496 26.414 418.064 26.762C417.644 27.11 417.434 27.602 417.434 28.238V28.616C417.434 29.252 417.644 29.744 418.064 30.092C418.496 30.44 419.108 30.614 419.9 30.614ZM419.9 24.692C420.62 24.692 421.166 24.536 421.538 24.224C421.922 23.9 422.114 23.45 422.114 22.874V22.64C422.114 22.064 421.922 21.62 421.538 21.308C421.166 20.984 420.62 20.822 419.9 20.822C419.18 20.822 418.628 20.984 418.244 21.308C417.872 21.62 417.686 22.064 417.686 22.64V22.874C417.686 23.45 417.872 23.9 418.244 24.224C418.628 24.536 419.18 24.692 419.9 24.692Z" fill="#E4E6FE"/>
<path d="M405.291 32V30.326H408.819V20.912H408.675L405.759 24.026L404.517 22.91L407.721 19.436H410.835V30.326H413.877V32H405.291Z" fill="#E4E6FE"/>
<path d="M346.503 800.216C345.759 800.216 345.105 800.126 344.541 799.946C343.977 799.754 343.503 799.496 343.119 799.172C342.735 798.848 342.441 798.464 342.237 798.02C342.045 797.576 341.949 797.09 341.949 796.562C341.949 795.722 342.183 795.05 342.651 794.546C343.119 794.042 343.731 793.688 344.487 793.484V793.34C343.839 793.112 343.317 792.752 342.921 792.26C342.525 791.768 342.327 791.162 342.327 790.442C342.327 789.47 342.687 788.69 343.407 788.102C344.139 787.514 345.171 787.22 346.503 787.22C347.835 787.22 348.861 787.514 349.581 788.102C350.313 788.69 350.679 789.47 350.679 790.442C350.679 791.162 350.481 791.768 350.085 792.26C349.689 792.752 349.167 793.112 348.519 793.34V793.484C349.275 793.688 349.887 794.042 350.355 794.546C350.823 795.05 351.057 795.722 351.057 796.562C351.057 797.09 350.955 797.576 350.751 798.02C350.559 798.464 350.271 798.848 349.887 799.172C349.503 799.496 349.029 799.754 348.465 799.946C347.901 800.126 347.247 800.216 346.503 800.216ZM346.503 798.614C347.295 798.614 347.901 798.44 348.321 798.092C348.753 797.744 348.969 797.252 348.969 796.616V796.238C348.969 795.602 348.753 795.11 348.321 794.762C347.901 794.414 347.295 794.24 346.503 794.24C345.711 794.24 345.099 794.414 344.667 794.762C344.247 795.11 344.037 795.602 344.037 796.238V796.616C344.037 797.252 344.247 797.744 344.667 798.092C345.099 798.44 345.711 798.614 346.503 798.614ZM346.503 792.692C347.223 792.692 347.769 792.536 348.141 792.224C348.525 791.9 348.717 791.45 348.717 790.874V790.64C348.717 790.064 348.525 789.62 348.141 789.308C347.769 788.984 347.223 788.822 346.503 788.822C345.783 788.822 345.231 788.984 344.847 789.308C344.475 789.62 344.289 790.064 344.289 790.64V790.874C344.289 791.45 344.475 791.9 344.847 792.224C345.231 792.536 345.783 792.692 346.503 792.692Z" fill="#E4E6FE"/>
<path d="M349.542 32L354.204 21.11H349.308V23.432H347.562V19.436H356.22V21.2L351.684 32H349.542Z" fill="#E4E6FE"/>
<path d="M337.291 32V30.326H340.819V20.912H340.675L337.759 24.026L336.517 22.91L339.721 19.436H342.835V30.326H345.877V32H337.291Z" fill="#E4E6FE"/>
<path d="M282.949 792.116C282.949 793.028 282.811 793.886 282.535 794.69C282.259 795.494 281.899 796.232 281.455 796.904C281.011 797.576 280.519 798.176 279.979 798.704C279.439 799.232 278.905 799.664 278.377 800H275.677C276.397 799.484 277.045 798.986 277.621 798.506C278.197 798.026 278.695 797.534 279.115 797.03C279.547 796.526 279.907 795.998 280.195 795.446C280.483 794.882 280.705 794.258 280.861 793.574L280.735 793.538C280.603 793.79 280.447 794.03 280.267 794.258C280.087 794.474 279.877 794.666 279.637 794.834C279.397 795.002 279.121 795.134 278.809 795.23C278.497 795.326 278.143 795.374 277.747 795.374C277.207 795.374 276.709 795.284 276.253 795.104C275.797 794.924 275.401 794.666 275.065 794.33C274.729 793.982 274.465 793.568 274.273 793.088C274.093 792.608 274.003 792.068 274.003 791.468C274.003 790.844 274.105 790.274 274.309 789.758C274.525 789.23 274.825 788.78 275.209 788.408C275.605 788.036 276.079 787.748 276.631 787.544C277.183 787.328 277.795 787.22 278.467 787.22C279.163 787.22 279.787 787.334 280.339 787.562C280.903 787.79 281.377 788.12 281.761 788.552C282.145 788.972 282.439 789.482 282.643 790.082C282.847 790.682 282.949 791.36 282.949 792.116ZM278.485 793.772C279.241 793.772 279.829 793.568 280.249 793.16C280.669 792.74 280.879 792.152 280.879 791.396V791.216C280.879 790.46 280.669 789.878 280.249 789.47C279.829 789.05 279.241 788.84 278.485 788.84C277.717 788.84 277.123 789.05 276.703 789.47C276.283 789.878 276.073 790.46 276.073 791.216V791.396C276.073 792.152 276.283 792.74 276.703 793.16C277.123 793.568 277.717 793.772 278.485 793.772Z" fill="#E4E6FE"/>
<path d="M283.935 32.216C283.227 32.216 282.597 32.102 282.045 31.874C281.493 31.646 281.025 31.322 280.641 30.902C280.257 30.47 279.963 29.954 279.759 29.354C279.555 28.754 279.453 28.076 279.453 27.32C279.453 26.408 279.591 25.55 279.867 24.746C280.143 23.942 280.503 23.204 280.947 22.532C281.391 21.86 281.883 21.266 282.423 20.75C282.963 20.222 283.497 19.784 284.025 19.436H286.725C286.005 19.952 285.357 20.45 284.781 20.93C284.205 21.41 283.701 21.902 283.269 22.406C282.849 22.91 282.495 23.444 282.207 24.008C281.919 24.56 281.697 25.178 281.541 25.862L281.667 25.898C281.799 25.646 281.955 25.412 282.135 25.196C282.315 24.968 282.525 24.77 282.765 24.602C283.005 24.434 283.281 24.302 283.593 24.206C283.905 24.11 284.259 24.062 284.655 24.062C285.195 24.062 285.693 24.152 286.149 24.332C286.605 24.512 287.001 24.776 287.337 25.124C287.673 25.46 287.931 25.868 288.111 26.348C288.303 26.828 288.399 27.368 288.399 27.968C288.399 28.592 288.291 29.168 288.075 29.696C287.871 30.212 287.571 30.656 287.175 31.028C286.791 31.4 286.323 31.694 285.771 31.91C285.219 32.114 284.607 32.216 283.935 32.216ZM283.917 30.596C284.685 30.596 285.279 30.392 285.699 29.984C286.119 29.564 286.329 28.976 286.329 28.22V28.04C286.329 27.284 286.119 26.702 285.699 26.294C285.279 25.874 284.685 25.664 283.917 25.664C283.161 25.664 282.573 25.874 282.153 26.294C281.733 26.702 281.523 27.284 281.523 28.04V28.22C281.523 28.976 281.733 29.564 282.153 29.984C282.573 30.392 283.161 30.596 283.917 30.596Z" fill="#E4E6FE"/>
<path d="M269.291 32V30.326H272.819V20.912H272.675L269.759 24.026L268.517 22.91L271.721 19.436H274.835V30.326H277.877V32H269.291Z" fill="#E4E6FE"/>
<path d="M215.9 800.216C215.108 800.216 214.418 800.072 213.83 799.784C213.254 799.484 212.774 799.058 212.39 798.506C212.018 797.954 211.742 797.276 211.562 796.472C211.382 795.668 211.292 794.75 211.292 793.718C211.292 792.698 211.382 791.786 211.562 790.982C211.742 790.166 212.018 789.482 212.39 788.93C212.774 788.378 213.254 787.958 213.83 787.67C214.418 787.37 215.108 787.22 215.9 787.22C216.692 787.22 217.376 787.37 217.952 787.67C218.54 787.958 219.02 788.378 219.392 788.93C219.776 789.482 220.058 790.166 220.238 790.982C220.418 791.786 220.508 792.698 220.508 793.718C220.508 794.75 220.418 795.668 220.238 796.472C220.058 797.276 219.776 797.954 219.392 798.506C219.02 799.058 218.54 799.484 217.952 799.784C217.376 800.072 216.692 800.216 215.9 800.216ZM215.9 798.56C216.812 798.56 217.46 798.224 217.844 797.552C218.24 796.868 218.438 795.95 218.438 794.798V792.638C218.438 791.486 218.24 790.574 217.844 789.902C217.46 789.218 216.812 788.876 215.9 788.876C215.444 788.876 215.054 788.966 214.73 789.146C214.406 789.314 214.142 789.566 213.938 789.902C213.734 790.226 213.584 790.622 213.488 791.09C213.404 791.546 213.362 792.062 213.362 792.638V794.798C213.362 795.374 213.404 795.896 213.488 796.364C213.584 796.82 213.734 797.216 213.938 797.552C214.142 797.876 214.406 798.128 214.73 798.308C215.054 798.476 215.444 798.56 215.9 798.56ZM215.9 794.78C215.48 794.78 215.186 794.696 215.018 794.528C214.862 794.36 214.784 794.156 214.784 793.916V793.52C214.784 793.28 214.862 793.076 215.018 792.908C215.186 792.74 215.48 792.656 215.9 792.656C216.32 792.656 216.608 792.74 216.764 792.908C216.932 793.076 217.016 793.28 217.016 793.52V793.916C217.016 794.156 216.932 794.36 216.764 794.528C216.608 794.696 216.32 794.78 215.9 794.78Z" fill="#E4E6FE"/>
<path d="M201.291 800V798.326H204.819V788.912H204.675L201.759 792.026L200.517 790.91L203.721 787.436H206.835V798.326H209.877V800H201.291Z" fill="#E4E6FE"/>
<path d="M219.697 21.182H213.991L213.667 25.646H213.811C214.099 25.154 214.447 24.764 214.855 24.476C215.263 24.176 215.821 24.026 216.529 24.026C217.069 24.026 217.567 24.116 218.023 24.296C218.491 24.476 218.893 24.734 219.229 25.07C219.577 25.406 219.847 25.82 220.039 26.312C220.243 26.792 220.345 27.338 220.345 27.95C220.345 28.574 220.243 29.15 220.039 29.678C219.835 30.194 219.541 30.644 219.157 31.028C218.773 31.4 218.299 31.694 217.735 31.91C217.171 32.114 216.529 32.216 215.809 32.216C215.245 32.216 214.741 32.15 214.297 32.018C213.865 31.898 213.475 31.736 213.127 31.532C212.791 31.316 212.497 31.076 212.245 30.812C211.993 30.536 211.771 30.254 211.579 29.966L213.055 28.814C213.211 29.054 213.373 29.282 213.541 29.498C213.721 29.702 213.919 29.882 214.135 30.038C214.351 30.194 214.597 30.314 214.873 30.398C215.161 30.482 215.485 30.524 215.845 30.524C216.625 30.524 217.219 30.314 217.627 29.894C218.035 29.462 218.239 28.88 218.239 28.148V28.004C218.239 27.272 218.029 26.702 217.609 26.294C217.201 25.886 216.613 25.682 215.845 25.682C215.281 25.682 214.837 25.784 214.513 25.988C214.189 26.192 213.907 26.42 213.667 26.672L211.993 26.438L212.461 19.436H219.697V21.182Z" fill="#E4E6FE"/>
<path d="M201.291 32V30.326H204.819V20.912H204.675L201.759 24.026L200.517 22.91L203.721 19.436H206.835V30.326H209.877V32H201.291Z" fill="#E4E6FE"/>
<path d="M144.084 800V798.326H147.612V788.912H147.468L144.552 792.026L143.31 790.91L146.514 787.436H149.628V798.326H152.67V800H144.084Z" fill="#E4E6FE"/>
<path d="M133.291 800V798.326H136.819V788.912H136.675L133.759 792.026L132.517 790.91L135.721 787.436H138.835V798.326H141.877V800H133.291Z" fill="#E4E6FE"/>
<path d="M149.016 32V29.552H143.04V27.824L148.296 19.436H150.942V27.968H152.706V29.552H150.942V32H149.016ZM144.75 27.968H149.016V21.29H148.908L144.75 27.968Z" fill="#E4E6FE"/>
<path d="M133.291 32V30.326H136.819V20.912H136.675L133.759 24.026L132.517 22.91L135.721 19.436H138.835V30.326H141.877V32H133.291Z" fill="#E4E6FE"/>
<path d="M84.3097 800H75.6337V798.074L79.7377 794.492C80.3857 793.916 80.8837 793.37 81.2317 792.854C81.5917 792.338 81.7717 791.792 81.7717 791.216V791.018C81.7717 790.358 81.5917 789.854 81.2317 789.506C80.8717 789.146 80.3497 788.966 79.6657 788.966C78.9697 788.966 78.4297 789.152 78.0457 789.524C77.6737 789.896 77.4037 790.37 77.2357 790.946L75.4717 790.28C75.5917 789.884 75.7657 789.506 75.9937 789.146C76.2217 788.774 76.5097 788.444 76.8577 788.156C77.2177 787.868 77.6377 787.64 78.1177 787.472C78.6097 787.304 79.1737 787.22 79.8097 787.22C80.4577 787.22 81.0337 787.316 81.5377 787.508C82.0537 787.688 82.4857 787.94 82.8337 788.264C83.1817 788.588 83.4457 788.978 83.6257 789.434C83.8057 789.878 83.8957 790.37 83.8957 790.91C83.8957 791.414 83.8177 791.882 83.6617 792.314C83.5177 792.734 83.3077 793.142 83.0317 793.538C82.7677 793.922 82.4497 794.294 82.0777 794.654C81.7057 795.014 81.2977 795.374 80.8537 795.734L77.8117 798.29H84.3097V800Z" fill="#E4E6FE"/>
<path d="M65.2906 800V798.326H68.8186V788.912H68.6746L65.7586 792.026L64.5166 790.91L67.7206 787.436H70.8346V798.326H73.8766V800H65.2906Z" fill="#E4E6FE"/>
<path d="M79.3776 24.62C80.1816 24.62 80.7756 24.452 81.1596 24.116C81.5556 23.768 81.7536 23.336 81.7536 22.82V22.694C81.7536 22.118 81.5616 21.68 81.1776 21.38C80.8056 21.068 80.3016 20.912 79.6656 20.912C79.0536 20.912 78.5316 21.05 78.0996 21.326C77.6796 21.602 77.3256 21.98 77.0376 22.46L75.6696 21.29C75.8616 21.014 76.0836 20.75 76.3356 20.498C76.5876 20.246 76.8756 20.03 77.1996 19.85C77.5236 19.658 77.8956 19.508 78.3156 19.4C78.7356 19.28 79.2096 19.22 79.7376 19.22C80.3256 19.22 80.8716 19.292 81.3756 19.436C81.8796 19.58 82.3176 19.796 82.6896 20.084C83.0616 20.36 83.3496 20.702 83.5536 21.11C83.7576 21.506 83.8596 21.956 83.8596 22.46C83.8596 22.856 83.7936 23.216 83.6616 23.54C83.5416 23.864 83.3676 24.152 83.1396 24.404C82.9236 24.644 82.6656 24.842 82.3656 24.998C82.0656 25.154 81.7476 25.268 81.4116 25.34V25.43C81.7716 25.502 82.1136 25.622 82.4376 25.79C82.7616 25.946 83.0496 26.156 83.3016 26.42C83.5536 26.672 83.7516 26.978 83.8956 27.338C84.0396 27.686 84.1116 28.088 84.1116 28.544C84.1116 29.096 84.0036 29.6 83.7876 30.056C83.5716 30.5 83.2596 30.884 82.8516 31.208C82.4556 31.532 81.9756 31.784 81.4116 31.964C80.8476 32.132 80.2176 32.216 79.5216 32.216C78.9336 32.216 78.4116 32.15 77.9556 32.018C77.5116 31.898 77.1156 31.736 76.7676 31.532C76.4196 31.316 76.1136 31.076 75.8496 30.812C75.5976 30.536 75.3756 30.254 75.1836 29.966L76.6776 28.814C76.9896 29.318 77.3556 29.732 77.7756 30.056C78.2076 30.368 78.7956 30.524 79.5396 30.524C80.3316 30.524 80.9376 30.344 81.3576 29.984C81.7776 29.612 81.9876 29.102 81.9876 28.454V28.31C81.9876 27.662 81.7656 27.17 81.3216 26.834C80.8896 26.486 80.2596 26.312 79.4316 26.312H78.0816V24.62H79.3776Z" fill="#E4E6FE"/>
<path d="M65.2906 32V30.326H68.8186V20.912H68.6746L65.7586 24.026L64.5166 22.91L67.7206 19.436H70.8346V30.326H73.8766V32H65.2906Z" fill="#E4E6FE"/>
<rect x="40" y="40" width="408" height="740" rx="3" fill="#408B62"/>
<rect x="532" y="40" width="408" height="740" rx="3" fill="#408B62"/>
<mask id="mask0_2360_3477" style="mask-type:alpha" maskUnits="userSpaceOnUse" x="40" y="40" width="900" height="740">
<rect x="40" y="40" width="408" height="740" rx="3" fill="#408B62"/>
<rect x="532" y="40" width="408" height="740" rx="3" fill="#408B62"/>
</mask>
<g mask="url(#mask0_2360_3477)">
<path d="M905.603 514.14C905.662 513.673 906.338 513.673 906.397 514.14L940 780H872L905.603 514.14Z" fill="#6AB08D"/>
<path d="M837.603 514.14C837.662 513.673 838.338 513.673 838.397 514.14L872 780H804L837.603 514.14Z" fill="#337351"/>
<path d="M769.603 514.14C769.662 513.673 770.338 513.673 770.397 514.14L804 780H736L769.603 514.14Z" fill="#6AB08D"/>
<path d="M701.603 514.14C701.662 513.673 702.338 513.673 702.397 514.14L736 780H668L701.603 514.14Z" fill="#337351"/>
<path d="M633.603 514.14C633.662 513.673 634.338 513.673 634.397 514.14L668 780H600L633.603 514.14Z" fill="#6AB08D"/>
<path d="M565.603 514.14C565.662 513.673 566.338 513.673 566.397 514.14L600 780H532L565.603 514.14Z" fill="#337351"/>
<path d="M413.603 514.14C413.662 513.673 414.338 513.673 414.397 514.14L448 780H380L413.603 514.14Z" fill="#6AB08D"/>
<path d="M345.603 514.14C345.662 513.673 346.338 513.673 346.397 514.14L380 780H312L345.603 514.14Z" fill="#337351"/>
<path d="M277.603 514.14C277.662 513.673 278.338 513.673 278.397 514.14L312 780H244L277.603 514.14Z" fill="#6AB08D"/>
<path d="M209.603 514.14C209.662 513.673 210.338 513.673 210.397 514.14L244 780H176L209.603 514.14Z" fill="#337351"/>
<path d="M141.603 514.14C141.662 513.673 142.338 513.673 142.397 514.14L176 780H108L141.603 514.14Z" fill="#6AB08D"/>
<path d="M73.6032 514.14C73.6621 513.673 74.3379 513.673 74.3968 514.14L108 780H40L73.6032 514.14Z" fill="#337351"/>
<path d="M74.3968 305.86C74.3379 306.327 73.6621 306.327 73.6032 305.86L40 40L108 40L74.3968 305.86Z" fill="#6AB08D"/>
<path d="M142.397 305.86C142.338 306.327 141.662 306.327 141.603 305.86L108 40L176 40L142.397 305.86Z" fill="#337351"/>
<path d="M210.397 305.86C210.338 306.327 209.662 306.327 209.603 305.86L176 40L244 40L210.397 305.86Z" fill="#6AB08D"/>
<path d="M278.397 305.86C278.338 306.327 277.662 306.327 277.603 305.86L244 40L312 40L278.397 305.86Z" fill="#337351"/>
<path d="M346.397 305.86C346.338 306.327 345.662 306.327 345.603 305.86L312 40L380 40L346.397 305.86Z" fill="#6AB08D"/>
<path d="M414.397 305.86C414.338 306.327 413.662 306.327 413.603 305.86L380 40L448 40L414.397 305.86Z" fill="#337351"/>
<path d="M566.397 305.86C566.338 306.327 565.662 306.327 565.603 305.86L532 40L600 40L566.397 305.86Z" fill="#6AB08D"/>
<path d="M634.397 305.86C634.338 306.327 633.662 306.327 633.603 305.86L600 40L668 40L634.397 305.86Z" fill="#337351"/>
<path d="M702.397 305.86C702.338 306.327 701.662 306.327 701.603 305.86L668 40L736 40L702.397 305.86Z" fill="#6AB08D"/>
<path d="M770.397 305.86C770.338 306.327 769.662 306.327 769.603 305.86L736 40L804 40L770.397 305.86Z" fill="#337351"/>
<path d="M838.397 305.86C838.338 306.327 837.662 306.327 837.603 305.86L804 40L872 40L838.397 305.86Z" fill="#6AB08D"/>
<path d="M906.397 305.86C906.338 306.327 905.662 306.327 905.603 305.86L872 40L940 40L906.397 305.86Z" fill="#337351"/>
</g>
<circle cx="906" cy="747" r="33" fill="#E4E6FE"/>
<circle cx="906" cy="747" r="33" fill="url(#paint0_linear_2360_3477)" fill-opacity="0.3"/>
<circle cx="74" cy="747" r="33" fill="#E4E6FE"/>
<circle cx="74" cy="747" r="33" fill="url(#paint1_linear_2360_3477)" fill-opacity="0.3"/>
<circle cx="566" cy="337" r="33" fill="#E4E6FE"/>
<circle cx="566" cy="337" r="33" fill="url(#paint2_linear_2360_3477)" fill-opacity="0.3"/>
<circle cx="74" cy="615" r="33" fill="#E4E6FE"/>
<circle cx="74" cy="615" r="33" fill="url(#paint3_linear_2360_3477)" fill-opacity="0.3"/>
<circle cx="566" cy="205" r="33" fill="#E4E6FE"/>
<circle cx="566" cy="205" r="33" fill="url(#paint4_linear_2360_3477)" fill-opacity="0.3"/>
<circle cx="346" cy="205" r="33" fill="#E4E6FE"/>
<circle cx="346" cy="205" r="33" fill="url(#paint5_linear_2360_3477)" fill-opacity="0.3"/>
<circle cx="74" cy="681" r="33" fill="#E4E6FE"/>
<circle cx="74" cy="681" r="33" fill="url(#paint6_linear_2360_3477)" fill-opacity="0.3"/>
<circle cx="566" cy="271" r="33" fill="#E4E6FE"/>
<circle cx="566" cy="271" r="33" fill="url(#paint7_linear_2360_3477)" fill-opacity="0.3"/>
<circle cx="906" cy="681" r="33" fill="#E4E6FE"/>
<circle cx="906" cy="681" r="33" fill="url(#paint8_linear_2360_3477)" fill-opacity="0.3"/>
<circle cx="74" cy="549" r="33" fill="#E4E6FE"/>
<circle cx="74" cy="549" r="33" fill="url(#paint9_linear_2360_3477)" fill-opacity="0.3"/>
<circle cx="566" cy="139" r="33" fill="#E4E6FE"/>
<circle cx="566" cy="139" r="33" fill="url(#paint10_linear_2360_3477)" fill-opacity="0.3"/>
<circle cx="346" cy="139" r="33" fill="#E4E6FE"/>
<circle cx="346" cy="139" r="33" fill="url(#paint11_linear_2360_3477)" fill-opacity="0.3"/>
<circle cx="74" cy="483" r="33" fill="#E4E6FE"/>
<circle cx="74" cy="483" r="33" fill="url(#paint12_linear_2360_3477)" fill-opacity="0.3"/>
<circle cx="566" cy="73" r="33" fill="#E4E6FE"/>
<circle cx="566" cy="73" r="33" fill="url(#paint13_linear_2360_3477)" fill-opacity="0.3"/>
<circle cx="346" cy="73" r="33" fill="#E4E6FE"/>
<circle cx="346" cy="73" r="33" fill="url(#paint14_linear_2360_3477)" fill-opacity="0.3"/>
<circle cx="566" cy="747" r="33" fill="#133B45"/>
<circle cx="566" cy="747" r="33" fill="url(#paint15_linear_2360_3477)" fill-opacity="0.3"/>
<circle cx="74" cy="337" r="33" fill="#133B45"/>
<circle cx="74" cy="337" r="33" fill="url(#paint16_linear_2360_3477)" fill-opacity="0.3"/>
<circle cx="346" cy="747" r="33" fill="#133B45"/>
<circle cx="346" cy="747" r="33" fill="url(#paint17_linear_2360_3477)" fill-opacity="0.3"/>
<circle cx="566" cy="681" r="33" fill="#133B45"/>
<circle cx="566" cy="681" r="33" fill="url(#paint18_linear_2360_3477)" fill-opacity="0.3"/>
<circle cx="74" cy="271" r="33" fill="#133B45"/>
<circle cx="74" cy="271" r="33" fill="url(#paint19_linear_2360_3477)" fill-opacity="0.3"/>
<circle cx="346" cy="681" r="33" fill="#133B45"/>
<circle cx="346" cy="681" r="33" fill="url(#paint20_linear_2360_3477)" fill-opacity="0.3"/>
<circle cx="566" cy="615" r="33" fill="#133B45"/>
<circle cx="566" cy="615" r="33" fill="url(#paint21_linear_2360_3477)" fill-opacity="0.3"/>
<circle cx="74" cy="205" r="33" fill="#133B45"/>
<circle cx="74" cy="205" r="33" fill="url(#paint22_linear_2360_3477)" fill-opacity="0.3"/>
<circle cx="346" cy="615" r="33" fill="#133B45"/>
<circle cx="346" cy="615" r="33" fill="url(#paint23_linear_2360_3477)" fill-opacity="0.3"/>
<circle cx="566" cy="549" r="33" fill="#133B45"/>
<circle cx="566" cy="549" r="33" fill="url(#paint24_linear_2360_3477)" fill-opacity="0.3"/>
<circle cx="906" cy="139" r="33" fill="#133B45"/>
<circle cx="906" cy="139" r="33" fill="url(#paint25_linear_2360_3477)" fill-opacity="0.3"/>
<circle cx="74" cy="139" r="33" fill="#133B45"/>
<circle cx="74" cy="139" r="33" fill="url(#paint26_linear_2360_3477)" fill-opacity="0.3"/>
<circle cx="566" cy="483" r="33" fill="#133B45"/>
<circle cx="566" cy="483" r="33" fill="url(#paint27_linear_2360_3477)" fill-opacity="0.3"/>
<circle cx="906" cy="73" r="33" fill="#133B45"/>
<circle cx="906" cy="73" r="33" fill="url(#paint28_linear_2360_3477)" fill-opacity="0.3"/>
<circle cx="74" cy="73" r="33" fill="#133B45"/>
<circle cx="74" cy="73" r="33" fill="url(#paint29_linear_2360_3477)" fill-opacity="0.3"/>
<path d="M165.238 208.949C177.034 213.906 178.814 215.329 177.015 218.36C176.103 219.898 174.836 220.383 172.054 220.26C163.273 219.871 125.313 206.721 119.639 202.103C116.593 199.623 116.183 195.719 118.747 193.597C121.885 191 140.028 186.761 149.083 186.509C159.179 186.228 159.792 187.491 151.921 192.343L146.619 195.611L150.005 196.107C157.789 197.25 287.413 201.444 299.842 200.956C345.083 199.182 857.92 156.762 862.564 155.649C867.427 154.485 869.88 157.302 866.61 160.295C863.418 163.216 418.426 203.923 364.052 206.176C301.824 210.478 306.816 210.431 227.985 207.436L155.037 204.663L165.238 208.949Z" fill="#FFD600"/>
<rect x="676" y="384" width="52" height="52" rx="6" fill="#23454E"/>
<circle cx="717" cy="395" r="5" fill="#D6D7ED"/>
<circle cx="717" cy="395" r="5" fill="white" fill-opacity="0.65"/>
<circle cx="687" cy="395" r="5" fill="#D6D7ED"/>
<circle cx="687" cy="395" r="5" fill="white" fill-opacity="0.65"/>
<circle cx="717" cy="410" r="5" fill="#D6D7ED"/>
<circle cx="717" cy="410" r="5" fill="white" fill-opacity="0.65"/>
<circle cx="687" cy="410" r="5" fill="#D6D7ED"/>
<circle cx="687" cy="410" r="5" fill="white" fill-opacity="0.65"/>
<circle cx="717" cy="425" r="5" fill="#D6D7ED"/>
<circle cx="717" cy="425" r="5" fill="white" fill-opacity="0.65"/>
<circle cx="687" cy="425" r="5" fill="#D6D7ED"/>
<circle cx="687" cy="425" r="5" fill="white" fill-opacity="0.65"/>
<rect x="744" y="384" width="52" height="52" rx="6" fill="#23454E"/>
<circle cx="785" cy="395" r="5" fill="#D6D7ED"/>
<circle cx="785" cy="395" r="5" fill="white" fill-opacity="0.65"/>
<circle cx="755" cy="395" r="5" fill="#D6D7ED"/>
<circle cx="755" cy="395" r="5" fill="white" fill-opacity="0.65"/>
<circle cx="770" cy="410" r="5" fill="#D6D7ED"/>
<circle cx="770" cy="410" r="5" fill="white" fill-opacity="0.65"/>
<circle cx="785" cy="425" r="5" fill="#D6D7ED"/>
<circle cx="785" cy="425" r="5" fill="white" fill-opacity="0.65"/>
<circle cx="755" cy="425" r="5" fill="#D6D7ED"/>
<circle cx="755" cy="425" r="5" fill="white" fill-opacity="0.65"/>
<defs>
<linearGradient id="paint0_linear_2360_3477" x1="906" y1="710.118" x2="906" y2="786.309" gradientUnits="userSpaceOnUse">
<stop stop-opacity="0"/>
<stop offset="1" stop-color="white"/>
</linearGradient>
<linearGradient id="paint1_linear_2360_3477" x1="74" y1="710.118" x2="74" y2="786.309" gradientUnits="userSpaceOnUse">
<stop stop-opacity="0"/>
<stop offset="1" stop-color="white"/>
</linearGradient>
<linearGradient id="paint2_linear_2360_3477" x1="566" y1="300.118" x2="566" y2="376.309" gradientUnits="userSpaceOnUse">
<stop stop-opacity="0"/>
<stop offset="1" stop-color="white"/>
</linearGradient>
<linearGradient id="paint3_linear_2360_3477" x1="74" y1="578.118" x2="74" y2="654.309" gradientUnits="userSpaceOnUse">
<stop stop-opacity="0"/>
<stop offset="1" stop-color="white"/>
</linearGradient>
<linearGradient id="paint4_linear_2360_3477" x1="566" y1="168.118" x2="566" y2="244.309" gradientUnits="userSpaceOnUse">
<stop stop-opacity="0"/>
<stop offset="1" stop-color="white"/>
</linearGradient>
<linearGradient id="paint5_linear_2360_3477" x1="346" y1="168.118" x2="346" y2="244.309" gradientUnits="userSpaceOnUse">
<stop stop-opacity="0"/>
<stop offset="1" stop-color="white"/>
</linearGradient>
<linearGradient id="paint6_linear_2360_3477" x1="74" y1="644.118" x2="74" y2="720.309" gradientUnits="userSpaceOnUse">
<stop stop-opacity="0"/>
<stop offset="1" stop-color="white"/>
</linearGradient>
<linearGradient id="paint7_linear_2360_3477" x1="566" y1="234.118" x2="566" y2="310.309" gradientUnits="userSpaceOnUse">
<stop stop-opacity="0"/>
<stop offset="1" stop-color="white"/>
</linearGradient>
<linearGradient id="paint8_linear_2360_3477" x1="906" y1="644.118" x2="906" y2="720.309" gradientUnits="userSpaceOnUse">
<stop stop-opacity="0"/>
<stop offset="1" stop-color="white"/>
</linearGradient>
<linearGradient id="paint9_linear_2360_3477" x1="74" y1="512.118" x2="74" y2="588.309" gradientUnits="userSpaceOnUse">
<stop stop-opacity="0"/>
<stop offset="1" stop-color="white"/>
</linearGradient>
<linearGradient id="paint10_linear_2360_3477" x1="566" y1="102.118" x2="566" y2="178.309" gradientUnits="userSpaceOnUse">
<stop stop-opacity="0"/>
<stop offset="1" stop-color="white"/>
</linearGradient>
<linearGradient id="paint11_linear_2360_3477" x1="346" y1="102.118" x2="346" y2="178.309" gradientUnits="userSpaceOnUse">
<stop stop-opacity="0"/>
<stop offset="1" stop-color="white"/>
</linearGradient>
<linearGradient id="paint12_linear_2360_3477" x1="74" y1="446.118" x2="74" y2="522.309" gradientUnits="userSpaceOnUse">
<stop stop-opacity="0"/>
<stop offset="1" stop-color="white"/>
</linearGradient>
<linearGradient id="paint13_linear_2360_3477" x1="566" y1="36.1176" x2="566" y2="112.309" gradientUnits="userSpaceOnUse">
<stop stop-opacity="0"/>
<stop offset="1" stop-color="white"/>
</linearGradient>
<linearGradient id="paint14_linear_2360_3477" x1="346" y1="36.1176" x2="346" y2="112.309" gradientUnits="userSpaceOnUse">
<stop stop-opacity="0"/>
<stop offset="1" stop-color="white"/>
</linearGradient>
<linearGradient id="paint15_linear_2360_3477" x1="566" y1="710.118" x2="566" y2="786.309" gradientUnits="userSpaceOnUse">
<stop stop-opacity="0"/>
<stop offset="1" stop-color="white"/>
</linearGradient>
<linearGradient id="paint16_linear_2360_3477" x1="74" y1="300.118" x2="74" y2="376.309" gradientUnits="userSpaceOnUse">
<stop stop-opacity="0"/>
<stop offset="1" stop-color="white"/>
</linearGradient>
<linearGradient id="paint17_linear_2360_3477" x1="346" y1="710.118" x2="346" y2="786.309" gradientUnits="userSpaceOnUse">
<stop stop-opacity="0"/>
<stop offset="1" stop-color="white"/>
</linearGradient>
<linearGradient id="paint18_linear_2360_3477" x1="566" y1="644.118" x2="566" y2="720.309" gradientUnits="userSpaceOnUse">
<stop stop-opacity="0"/>
<stop offset="1" stop-color="white"/>
</linearGradient>
<linearGradient id="paint19_linear_2360_3477" x1="74" y1="234.118" x2="74" y2="310.309" gradientUnits="userSpaceOnUse">
<stop stop-opacity="0"/>
<stop offset="1" stop-color="white"/>
</linearGradient>
<linearGradient id="paint20_linear_2360_3477" x1="346" y1="644.118" x2="346" y2="720.309" gradientUnits="userSpaceOnUse">
<stop stop-opacity="0"/>
<stop offset="1" stop-color="white"/>
</linearGradient>
<linearGradient id="paint21_linear_2360_3477" x1="566" y1="578.118" x2="566" y2="654.309" gradientUnits="userSpaceOnUse">
<stop stop-opacity="0"/>
<stop offset="1" stop-color="white"/>
</linearGradient>
<linearGradient id="paint22_linear_2360_3477" x1="74" y1="168.118" x2="74" y2="244.309" gradientUnits="userSpaceOnUse">
<stop stop-opacity="0"/>
<stop offset="1" stop-color="white"/>
</linearGradient>
<linearGradient id="paint23_linear_2360_3477" x1="346" y1="578.118" x2="346" y2="654.309" gradientUnits="userSpaceOnUse">
<stop stop-opacity="0"/>
<stop offset="1" stop-color="white"/>
</linearGradient>
<linearGradient id="paint24_linear_2360_3477" x1="566" y1="512.118" x2="566" y2="588.309" gradientUnits="userSpaceOnUse">
<stop stop-opacity="0"/>
<stop offset="1" stop-color="white"/>
</linearGradient>
<linearGradient id="paint25_linear_2360_3477" x1="906" y1="102.118" x2="906" y2="178.309" gradientUnits="userSpaceOnUse">
<stop stop-opacity="0"/>
<stop offset="1" stop-color="white"/>
</linearGradient>
<linearGradient id="paint26_linear_2360_3477" x1="74" y1="102.118" x2="74" y2="178.309" gradientUnits="userSpaceOnUse">
<stop stop-opacity="0"/>
<stop offset="1" stop-color="white"/>
</linearGradient>
<linearGradient id="paint27_linear_2360_3477" x1="566" y1="446.118" x2="566" y2="522.309" gradientUnits="userSpaceOnUse">
<stop stop-opacity="0"/>
<stop offset="1" stop-color="white"/>
</linearGradient>
<linearGradient id="paint28_linear_2360_3477" x1="906" y1="36.1176" x2="906" y2="112.309" gradientUnits="userSpaceOnUse">
<stop stop-opacity="0"/>
<stop offset="1" stop-color="white"/>
</linearGradient>
<linearGradient id="paint29_linear_2360_3477" x1="74" y1="36.1176" x2="74" y2="112.309" gradientUnits="userSpaceOnUse">
<stop stop-opacity="0"/>
<stop offset="1" stop-color="white"/>
</linearGradient>
</defs>
</svg>
